<svg width="52" height="52" viewBox="0 0 52 52" fill="none" xmlns="http://www.w3.org/2000/svg">
<rect width="52" height="52" rx="8" fill="#025D8D"/>
<path d="M33.4472 26.8944C33.786 26.725 34 26.3788 34 26C34 25.6212 33.786 25.275 33.4472 25.1056L19.4472 18.1056C19.0925 17.9282 18.6665 17.9772 18.3614 18.2305C18.0562 18.4838 17.9295 18.8934 18.0385 19.2747L19.467 24.2747C19.5897 24.704 19.9821 25 20.4286 25H25C25.5523 25 26 25.4477 26 26C26 26.5523 25.5523 27 25 27H20.4286C19.9821 27 19.5897 27.296 19.467 27.7253L18.0385 32.7253C17.9295 33.1066 18.0562 33.5163 18.3614 33.7695C18.6665 34.0228 19.0925 34.0718 19.4472 33.8944L33.4472 26.8944Z" fill="white"/>
</svg>
