<svg width="18" height="18" viewBox="0 0 18 18" fill="none" xmlns="http://www.w3.org/2000/svg">
<path d="M15.2857 2.6H13.8571V2.06667C13.8571 1.78377 13.7367 1.51246 13.5224 1.31242C13.3081 1.11238 13.0174 1 12.7143 1C12.4112 1 12.1205 1.11238 11.9062 1.31242C11.6918 1.51246 11.5714 1.78377 11.5714 2.06667V2.6H6.42857V2.06667C6.42857 1.78377 6.30816 1.51246 6.09384 1.31242C5.87951 1.11238 5.58882 1 5.28571 1C4.98261 1 4.69192 1.11238 4.47759 1.31242C4.26327 1.51246 4.14286 1.78377 4.14286 2.06667V2.6H2.71429C2.25963 2.6 1.82359 2.76857 1.5021 3.06863C1.18061 3.36869 1 3.77565 1 4.2V4.73333C1 4.87478 1.0602 5.01044 1.16737 5.11046C1.27453 5.21048 1.41988 5.26667 1.57143 5.26667H16.4286C16.5801 5.26667 16.7255 5.21048 16.8326 5.11046C16.9398 5.01044 17 4.87478 17 4.73333V4.2C17 3.77565 16.8194 3.36869 16.4979 3.06863C16.1764 2.76857 15.7404 2.6 15.2857 2.6ZM16.4286 6.86667H1.57143C1.41988 6.86667 1.27453 6.92286 1.16737 7.02288C1.0602 7.1229 1 7.25855 1 7.4V15.4C1 15.8243 1.18061 16.2313 1.5021 16.5314C1.82359 16.8314 2.25963 17 2.71429 17H15.2857C15.7404 17 16.1764 16.8314 16.4979 16.5314C16.8194 16.2313 17 15.8243 17 15.4V7.4C17 7.25855 16.9398 7.1229 16.8326 7.02288C16.7255 6.92286 16.5801 6.86667 16.4286 6.86667ZM9 15.9067C8.15802 15.9067 7.33494 15.6736 6.63486 15.237C5.93477 14.8004 5.38913 14.1799 5.06691 13.4539C4.7447 12.7278 4.66039 11.9289 4.82466 11.1582C4.98892 10.3874 5.39437 9.67944 5.98975 9.12376C6.58512 8.56808 7.34367 8.18966 8.16947 8.03635C8.99528 7.88303 9.85125 7.96172 10.6291 8.26245C11.407 8.56318 12.0719 9.07246 12.5397 9.72587C13.0075 10.3793 13.2571 11.1475 13.2571 11.9333C13.2541 12.9863 12.8046 13.9953 12.0069 14.7398C11.2092 15.4843 10.1281 15.9039 9 15.9067ZM7.05714 13.5867C7.05329 13.6486 7.03596 13.7091 7.00621 13.7645C6.97646 13.8199 6.93491 13.8691 6.8841 13.909C6.83329 13.949 6.77429 13.9788 6.71071 13.9968C6.64712 14.0147 6.58029 14.0203 6.51429 14.0133H6.17143C6.12248 14.0156 6.07446 14.0003 6.03725 13.9705C6.00005 13.9408 5.97649 13.8988 5.97143 13.8533V11.4C5.97143 11.2933 6.05714 11.24 6.17143 11.24H6.85714C6.90609 11.2377 6.95411 11.253 6.99132 11.2828C7.02852 11.3126 7.05208 11.3545 7.05714 11.4V13.5867ZM11.9714 13.1067C11.9714 14.04 11.0286 14.12 10 14.12C9.05714 14.12 8.71429 13.8267 7.8 13.8C7.75563 13.7969 7.71392 13.7791 7.68246 13.7497C7.65099 13.7203 7.63187 13.6814 7.62857 13.64V11.5067C7.62857 11.4 7.71429 11.3467 7.82857 11.3467C8.13731 11.3343 8.42887 11.2106 8.64199 11.0018C8.85511 10.7929 8.97319 10.5151 8.97143 10.2267V9.58667C8.97143 9.48 9.05714 9.42667 9.17143 9.42667H9.51429C9.58029 9.41967 9.64712 9.42532 9.71071 9.44325C9.77429 9.46118 9.83329 9.49102 9.8841 9.53096C9.93491 9.57089 9.97646 9.62008 10.0062 9.6755C10.036 9.73093 10.0533 9.79144 10.0571 9.85333V10.9467C10.061 11.0086 10.0783 11.0691 10.1081 11.1245C10.1378 11.1799 10.1794 11.2291 10.2302 11.269C10.281 11.309 10.34 11.3388 10.4036 11.3568C10.4672 11.3747 10.534 11.3803 10.6 11.3733H11.4C11.5322 11.3644 11.6629 11.404 11.7643 11.4837C11.8657 11.5634 11.9298 11.6769 11.9429 11.8L11.9714 13.1067Z" fill="#0078B8"/>
</svg>
