<svg width="20" height="20" viewBox="0 0 20 20" fill="none" xmlns="http://www.w3.org/2000/svg">
<g clip-path="url(#clip0_3906_16503)">
<g filter="url(#filter0_d_3906_16503)">
<path d="M18.3332 10.0001C18.3332 14.6024 14.6022 18.3334 9.99984 18.3334C5.39746 18.3334 1.6665 14.6024 1.6665 10.0001C1.6665 5.39771 5.39746 1.66675 9.99984 1.66675C14.6022 1.66675 18.3332 5.39771 18.3332 10.0001Z" fill="#0078B8"/>
</g>
<path fill-rule="evenodd" clip-rule="evenodd" d="M10 6.04175C10.3452 6.04175 10.625 6.32157 10.625 6.66675V9.74116L12.5253 11.6415C12.7693 11.8856 12.7693 12.2812 12.5253 12.5253C12.2812 12.7694 11.8855 12.7694 11.6414 12.5253L9.55808 10.442C9.44083 10.3248 9.375 10.1658 9.375 10.0001V6.66675C9.375 6.32157 9.65483 6.04175 10 6.04175Z" fill="white"/>
</g>
<defs>
<filter id="filter0_d_3906_16503" x="-3.3335" y="-3.33325" width="26.6665" height="26.6667" filterUnits="userSpaceOnUse" color-interpolation-filters="sRGB">
<feFlood flood-opacity="0" result="BackgroundImageFix"/>
<feColorMatrix in="SourceAlpha" type="matrix" values="0 0 0 0 0 0 0 0 0 0 0 0 0 0 0 0 0 0 127 0" result="hardAlpha"/>
<feOffset/>
<feGaussianBlur stdDeviation="2.5"/>
<feComposite in2="hardAlpha" operator="out"/>
<feColorMatrix type="matrix" values="0 0 0 0 0 0 0 0 0 0 0 0 0 0 0 0 0 0 0.25 0"/>
<feBlend mode="normal" in2="BackgroundImageFix" result="effect1_dropShadow_3906_16503"/>
<feBlend mode="normal" in="SourceGraphic" in2="effect1_dropShadow_3906_16503" result="shape"/>
</filter>
<clipPath id="clip0_3906_16503">
<rect width="20" height="20" fill="white"/>
</clipPath>
</defs>
</svg>
