<svg width="42" height="42" viewBox="0 0 42 42" fill="none" xmlns="http://www.w3.org/2000/svg">
<circle opacity="0.1" cx="21" cy="21" r="21" fill="#5AB4E4"/>
<g clip-path="url(#clip0_7167_2300)">
<path d="M24.5999 25.9544C24.833 26.7516 25.0372 27.45 25.2499 28.1757C25.4838 28.2182 25.6948 28.2497 25.9032 28.2965C26.4052 28.4096 26.5583 28.6223 26.5038 29.1217C26.4885 29.2672 26.4622 29.411 26.4417 29.5556C26.3873 29.9367 26.2274 30.129 25.8607 30.1809C25.5946 30.2174 25.3257 30.2277 25.0576 30.2115C23.7185 30.1315 22.3795 30.1809 21.0404 30.2073C20.7001 30.2132 20.3598 30.1707 20.0195 30.1724C19.4606 30.1724 18.9008 30.1919 18.3419 30.2039C18.1722 30.2192 18.0015 30.2217 17.8314 30.2115C17.281 30.1358 17.1389 29.975 17.0938 29.4118C17.0768 29.1949 17.0658 28.9779 17.0504 28.7423C17.3618 28.4726 17.7991 28.5177 18.1334 28.2752C18.1964 27.5946 18.261 26.8953 18.33 26.156C18.1871 26.1077 18.0402 26.0721 17.891 26.0497C17.332 26.0174 16.7723 25.9987 16.2133 25.9774C15.2877 25.9434 14.3613 25.9246 13.4374 25.871C13.0488 25.8408 12.6633 25.7793 12.2846 25.6873C11.8805 25.5971 11.57 25.3912 11.5028 24.931C11.4432 24.5218 11.3258 24.1194 11.2935 23.7093C11.0936 21.1571 11.0289 18.6049 11.0264 16.0416C11.0272 15.0182 11.0119 13.9922 11 12.9713C11 12.8981 11 12.825 11 12.7518C11.0128 12.3886 11.1174 12.2703 11.4645 12.2252C11.4883 12.2252 11.513 12.2193 11.5368 12.2176C13.0418 12.1248 14.5535 12.061 16.0568 11.9317C17.6613 11.7939 19.2683 11.7803 20.8745 11.7803C22.0426 11.7803 23.2106 11.8722 24.3796 11.9138C24.89 11.9314 25.4004 11.9365 25.9109 11.9292C26.6953 11.9155 27.466 12.0346 28.2385 12.1333C28.8902 12.2184 29.5384 12.3247 30.1901 12.4047C30.3004 12.4114 30.4055 12.4536 30.4897 12.5251C30.5739 12.5966 30.6327 12.6934 30.6572 12.8012C30.6669 12.8236 30.6744 12.847 30.6793 12.8709C30.7575 13.6204 30.8639 14.3691 30.9073 15.1211C30.9643 16.1148 30.9923 17.111 30.9966 18.1055C31.006 20.0554 30.9966 22.0044 30.9821 23.9535C30.9732 24.1484 30.9447 24.3419 30.8971 24.5311C30.7916 25.028 30.4411 25.3342 29.9383 25.3878C28.6554 25.5248 27.3733 25.6652 26.0904 25.7987C25.7501 25.8345 25.4098 25.8472 25.0695 25.8779C24.9334 25.8898 24.7973 25.9212 24.5999 25.9544ZM29.8864 13.3116C29.6448 13.2878 29.4984 13.2844 29.3572 13.258C28.2131 13.0326 27.0532 12.8966 25.8879 12.8514C25.4745 12.8377 25.0601 12.8573 24.6484 12.8369C23.9193 12.8003 23.1919 12.7135 22.4628 12.7033C20.9043 12.6812 19.3457 12.6948 17.7838 12.6948C17.7353 12.6948 17.6877 12.705 17.6383 12.7076C15.9368 12.8029 14.2354 12.8979 12.5339 12.9926C12.322 13.0045 12.1085 13.0258 11.9052 13.0428C11.8756 13.1255 11.8542 13.211 11.8414 13.298C11.8473 14.2721 11.8533 15.2453 11.8678 16.2186C11.8839 17.3143 11.912 18.4101 11.929 19.505C11.952 21.0142 11.9656 22.5225 12.2429 24.0139C12.2744 24.184 12.2744 24.3542 12.3008 24.5243C12.3229 24.6638 12.3612 24.8 12.4012 24.9744C12.7542 25.0144 13.0894 25.079 13.4221 25.0867C15.2239 25.1301 17.0258 25.1598 18.8276 25.1913C19.3619 25.2007 19.8987 25.2296 20.4313 25.1998C22.5709 25.0773 24.7105 24.9591 26.8467 24.7915C27.8846 24.7064 28.914 24.5218 29.9893 24.3763C30.0361 23.825 30.1016 23.2976 30.1237 22.7684C30.2428 19.9669 30.0667 17.1688 30.0038 14.3691C30.0012 14.0305 29.9323 13.6953 29.8864 13.3116ZM19.0046 26.1739C18.7911 27.2356 18.7621 27.8371 18.8889 28.2506C19.5031 28.2506 20.1097 28.2506 20.7154 28.2506C21.3212 28.2506 21.9303 28.2463 22.5369 28.2174C23.1434 28.1885 23.7381 28.2803 24.3693 28.1323C24.2634 27.3961 24.0671 26.6758 23.7849 25.9876C23.6386 25.9876 23.5186 25.9876 23.3995 25.9876C22.0638 26.0021 20.7324 26.2079 19.3925 26.0727C19.2624 26.0608 19.1237 26.1407 19.0046 26.1739ZM17.8842 29.2442C17.8842 29.3446 17.8757 29.3854 17.8842 29.3906C17.9446 29.422 18.0143 29.4756 18.073 29.4671C18.7514 29.3867 19.437 29.3887 20.1148 29.4731C20.3331 29.4894 20.5522 29.4917 20.7707 29.4799C21.9362 29.4595 23.1023 29.4373 24.269 29.4135C24.6807 29.4039 25.0922 29.3857 25.5034 29.3591C25.54 29.3591 25.5825 29.2544 25.5953 29.1932C25.6021 29.1626 25.5536 29.1081 25.5178 29.0851C25.4747 29.0618 25.4265 29.0498 25.3775 29.0503C24.5803 29.0188 23.7849 28.9584 22.9835 28.9958C21.9626 29.0434 20.9417 29.0086 19.9208 29.0443C19.242 29.0681 18.5588 29.0579 17.8842 29.2442Z" fill="url(#paint0_linear_7167_2300)"/>
<path d="M29.8866 13.3114C29.9325 13.6967 30.0014 14.0319 30.0091 14.3688C30.072 17.1686 30.2481 19.9667 30.129 22.7682C30.1069 23.2973 30.044 23.8248 29.9946 24.3761C28.9193 24.5215 27.8899 24.7095 26.852 24.7912C24.7158 24.9614 22.5762 25.0771 20.4366 25.1996C19.904 25.2293 19.3672 25.1996 18.8329 25.1911C17.0311 25.1596 15.2292 25.1298 13.4274 25.0864C13.0871 25.0788 12.7561 25.0141 12.4065 24.9741C12.3665 24.804 12.3282 24.6636 12.3061 24.5241C12.2797 24.3539 12.2797 24.1838 12.2482 24.0136C11.9709 22.5223 11.9573 21.0139 11.9343 19.5047C11.9173 18.4098 11.8892 17.3141 11.8731 16.2183C11.8586 15.2451 11.8526 14.2718 11.8467 13.2977C11.8595 13.2108 11.8809 13.1253 11.9105 13.0425C12.1147 13.0255 12.3273 13.0042 12.5392 12.9923C14.2407 12.8959 15.9421 12.8009 17.6436 12.7073C17.693 12.7073 17.7406 12.6946 17.7891 12.6946C19.3485 12.6946 20.907 12.681 22.4681 12.7031C23.1972 12.7133 23.9246 12.8001 24.6537 12.8366C25.0654 12.8571 25.4798 12.8366 25.8932 12.8511C27.059 12.8957 28.2195 13.0311 29.3642 13.2561C29.4986 13.2824 29.645 13.2858 29.8866 13.3114ZM29.1209 24.0307C29.1209 23.7337 29.115 23.4938 29.1209 23.2548C29.1754 21.4053 29.1788 19.5515 29.3115 17.7071C29.3889 16.6267 29.2017 15.5735 29.1992 14.5058C29.1992 14.2378 29.0409 14.0804 28.7696 13.9877C28.1437 13.7782 27.4785 13.713 26.8239 13.7971C26.2928 13.8591 25.757 13.8711 25.2237 13.8329C24.8587 13.8107 24.4946 13.7742 24.1296 13.7708C21.84 13.7475 19.5504 13.7296 17.2608 13.7172C16.895 13.7172 16.53 13.7231 16.165 13.7367C15.168 13.775 14.1709 13.8124 13.1755 13.866C13.0181 13.8745 12.865 13.9656 12.6906 14.0251C12.6736 14.3978 12.6438 14.7363 12.6464 15.0741C12.654 15.9503 12.6779 16.8266 12.6906 17.7029C12.6983 18.2371 12.6906 18.7714 12.7025 19.3057C12.7153 19.9386 12.728 20.5716 12.7604 21.2028C12.7867 21.8102 12.8718 22.4143 12.8812 23.0234C12.8982 23.8741 13.1015 23.983 13.817 24.314C13.9642 24.382 14.1496 24.3778 14.3181 24.3863C14.7554 24.4067 15.1977 24.3863 15.6316 24.4356C16.6525 24.5581 17.6734 24.5573 18.6943 24.5283C19.9108 24.4935 21.1274 24.4331 22.3439 24.4143C24.122 24.3854 25.9 24.3829 27.6772 24.371C28.1795 24.3819 28.6764 24.2648 29.1209 24.0307Z" fill="#BCE8FF"/>
<path d="M19.0047 26.1737C19.1238 26.1406 19.26 26.0606 19.3927 26.0734C20.7326 26.2078 22.064 26.0019 23.3996 25.9883C23.5188 25.9883 23.6387 25.9883 23.785 25.9883C24.0671 26.6759 24.2634 27.3957 24.3695 28.1313C23.7382 28.2802 23.1334 28.1891 22.537 28.2164C21.9406 28.2436 21.323 28.2453 20.7156 28.2495C20.1081 28.2538 19.5033 28.2495 18.889 28.2495C18.7623 27.8369 18.7912 27.2355 19.0047 26.1737Z" fill="#BCE8FF"/>
<path d="M17.8839 29.2438C18.5586 29.0575 19.2451 29.0677 19.9172 29.0447C20.9381 29.009 21.959 29.0447 22.9799 28.9962C23.7813 28.9588 24.5767 29.0192 25.3738 29.0507C25.4227 29.05 25.471 29.0617 25.5142 29.0847C25.5499 29.1077 25.5993 29.1621 25.5916 29.1927C25.5789 29.254 25.5363 29.3561 25.4997 29.3586C25.0891 29.3859 24.6776 29.404 24.2653 29.4131C23.0992 29.4386 21.9332 29.4607 20.7671 29.4794C20.5485 29.4912 20.3294 29.489 20.1112 29.4726C19.4333 29.3882 18.7477 29.3862 18.0694 29.4667C18.0107 29.4743 17.9409 29.4216 17.8805 29.3901C17.8754 29.385 17.8839 29.3442 17.8839 29.2438Z" fill="#BCE8FF"/>
<path d="M29.1206 24.0307C28.6786 24.2635 28.1849 24.3805 27.6855 24.371C25.9083 24.383 24.1302 24.3855 22.3522 24.4144C21.1356 24.4331 19.9191 24.4935 18.7025 24.5284C17.6816 24.5574 16.6607 24.5582 15.6399 24.4357C15.206 24.3838 14.7636 24.4068 14.3263 24.3864C14.1562 24.3778 13.9724 24.3821 13.8252 24.314C13.1064 23.9831 12.903 23.8759 12.8894 23.0235C12.8716 22.4143 12.7865 21.8103 12.7576 21.2029C12.7252 20.5716 12.7125 19.9387 12.6997 19.3057C12.6895 18.7715 12.6954 18.2372 12.6878 17.703C12.675 16.8267 12.6512 15.9504 12.6436 15.0742C12.6436 14.7339 12.6708 14.3978 12.6878 14.0252C12.8622 13.9657 13.0153 13.8746 13.1727 13.8661C14.1681 13.8125 15.1685 13.7751 16.1622 13.7368C16.5272 13.7232 16.8921 13.7147 17.258 13.7172C19.547 13.732 21.8366 13.7499 24.1268 13.7708C24.4918 13.7708 24.8559 13.8108 25.2209 13.8329C25.7551 13.8714 26.2917 13.8594 26.8237 13.7972C27.4784 13.7121 28.1438 13.7764 28.7701 13.9852C29.0356 14.0771 29.1972 14.2353 29.1972 14.5025C29.1972 15.5702 29.3869 16.6234 29.3095 17.7038C29.1768 19.5482 29.1734 21.402 29.1189 23.2515C29.1113 23.4914 29.1206 23.7313 29.1206 24.0307ZM28.503 15.2418C26.9223 14.7892 26.2758 14.6862 25.2413 14.699C24.9733 14.699 24.7053 14.6947 24.4382 14.6922C22.9035 14.678 21.369 14.6638 19.8348 14.6497C19.5915 14.6497 19.3482 14.6343 19.1049 14.6292C17.6927 14.5958 16.2805 14.564 14.8682 14.534C14.5764 14.528 14.2829 14.5391 13.992 14.5612C13.8199 14.584 13.6494 14.6176 13.4815 14.6616C13.4756 15.2809 13.456 15.8628 13.4679 16.4481C13.4934 17.6902 13.5351 18.9314 13.57 20.1726C13.5921 20.9511 13.6083 21.7303 13.6355 22.5096C13.6368 22.8402 13.6943 23.1682 13.8057 23.4795C13.8891 23.5058 13.9744 23.526 14.0609 23.5399C15.3013 23.6153 16.5414 23.6893 17.7812 23.7619C17.8773 23.7679 17.9751 23.7619 18.073 23.7619C19.4826 23.7049 20.8923 23.6292 22.3028 23.5918C24.0809 23.5484 25.8589 23.5399 27.6361 23.5118C27.8299 23.4999 28.023 23.478 28.2146 23.4463C28.4001 20.6873 28.6008 17.9769 28.503 15.2418Z" fill="url(#paint1_linear_7167_2300)"/>
<path d="M28.503 15.242C28.6008 17.9771 28.4 20.6867 28.2171 23.4422C28.0256 23.474 27.8325 23.4959 27.6386 23.5078C25.8614 23.5358 24.0834 23.5443 22.3054 23.5877C20.8948 23.6218 19.4852 23.6975 18.0755 23.7579C17.9777 23.7579 17.8798 23.7672 17.7837 23.7579C16.5433 23.6853 15.3029 23.6113 14.0626 23.5358C13.9761 23.522 13.8908 23.5018 13.8073 23.4754C13.696 23.1642 13.6384 22.8362 13.6372 22.5056C13.61 21.7263 13.5938 20.947 13.5717 20.1686C13.5368 18.9274 13.4951 17.6862 13.4696 16.4441C13.4577 15.863 13.4772 15.2811 13.4832 14.6575C13.6511 14.6135 13.8216 14.58 13.9936 14.5571C14.2846 14.535 14.5781 14.524 14.8699 14.5299C16.2821 14.5583 17.6944 14.59 19.1066 14.6252C19.3499 14.6303 19.5932 14.6431 19.8365 14.6456C21.3678 14.6609 22.9023 14.6751 24.4399 14.6882C24.707 14.6882 24.975 14.6984 25.243 14.695C26.2758 14.6865 26.9223 14.7894 28.503 15.242Z" fill="#BCE8FF"/>
</g>
<defs>
<linearGradient id="paint0_linear_7167_2300" x1="21.0002" y1="11.7803" x2="21.0002" y2="30.2189" gradientUnits="userSpaceOnUse">
<stop stop-color="#49B848"/>
<stop offset="1" stop-color="#007FC3"/>
</linearGradient>
<linearGradient id="paint1_linear_7167_2300" x1="20.9858" y1="13.7168" x2="20.9858" y2="24.5445" gradientUnits="userSpaceOnUse">
<stop stop-color="#49B848"/>
<stop offset="1" stop-color="#007FC3"/>
</linearGradient>
<clipPath id="clip0_7167_2300">
<rect width="20" height="20" fill="white" transform="translate(11 11)"/>
</clipPath>
</defs>
</svg>
