<svg width="34" height="34" viewBox="0 0 34 34" fill="none" xmlns="http://www.w3.org/2000/svg">
<path d="M21.0269 12.2477H21.5269V11.7477V8.94802V8.44802H21.0269H18.4716C16.0285 8.44802 14.3166 10.532 14.3166 12.9731V14.0208H12.0806H11.5806V14.5208V17.1523V17.6523H12.0806H14.3166V25.052V25.552H14.8166H17.8323H18.3323V25.052V17.6523H20.5452H20.9617L21.037 17.2426L21.5204 14.6112L21.6289 14.0208H21.0286H18.3323V12.6756C18.3323 12.5151 18.3837 12.3874 18.4411 12.3094C18.4685 12.2722 18.4893 12.255 18.5001 12.2477H21.0269ZM0.5 17C0.5 7.88718 7.88718 0.5 17 0.5C26.1128 0.5 33.5 7.88718 33.5 17C33.5 26.1128 26.1128 33.5 17 33.5C7.88718 33.5 0.5 26.1128 0.5 17Z" fill="#BFD2F8" stroke="#034F86"/>
</svg>
