<svg width="32" height="32" viewBox="0 0 32 32" fill="none" xmlns="http://www.w3.org/2000/svg">
<rect width="32" height="32" rx="16" fill="#007FC3" fill-opacity="0.08"/>
<g filter="url(#filter0_d_7873_14681)">
<path d="M20.0932 14.0744C20.183 14.6433 20.6283 15.3684 21.3678 15.6208C21.6701 15.725 22.0011 15.725 22.3034 15.6208C23.0265 15.3644 23.4922 14.6433 23.5821 14.0744C23.6802 14.0664 23.8068 13.9342 23.9457 13.4535C24.1337 12.7965 23.9335 12.7003 23.766 12.7163C23.7987 12.6242 23.8232 12.5361 23.8395 12.4479C24.1255 10.7533 23.2757 10.6933 23.2757 10.6933C23.2757 10.6933 23.1327 10.4288 22.761 10.2245C22.5117 10.0803 22.1645 9.96814 21.7069 10.0082C21.5598 10.0162 21.4168 10.0443 21.2861 10.0883C21.1186 10.1444 20.9634 10.2245 20.8245 10.3207C20.6529 10.4288 20.4935 10.557 20.3505 10.7053C20.1258 10.9296 19.9257 11.2221 19.8358 11.5866C19.7622 11.859 19.7786 12.1435 19.8399 12.4479C19.8562 12.5361 19.8807 12.6282 19.9134 12.7163C19.7418 12.7003 19.5416 12.7965 19.7336 13.4535C19.8685 13.9302 19.9951 14.0664 20.0932 14.0744Z" fill="#007CCC"/>
<path d="M8.35195 14.0744C8.44183 14.6433 8.88714 15.3684 9.6266 15.6208C9.92893 15.725 10.2598 15.725 10.5622 15.6208C11.2853 15.3644 11.751 14.6433 11.8409 14.0744C11.939 14.0664 12.0656 13.9342 12.2045 13.4535C12.3925 12.7965 12.1923 12.7003 12.0248 12.7163C12.0574 12.6242 12.082 12.5361 12.0983 12.4479C12.3843 10.7533 11.5345 10.6933 11.5345 10.6933C11.5345 10.6933 11.3915 10.4288 11.0197 10.2245C10.7705 10.0803 10.4233 9.96814 9.9657 10.0082C9.81862 10.0162 9.67563 10.0443 9.5449 10.0883C9.37739 10.1444 9.22215 10.2245 9.08324 10.3207C8.91165 10.4288 8.75232 10.557 8.60933 10.7053C8.38463 10.9296 8.18444 11.2221 8.09456 11.5866C8.02102 11.859 8.03737 12.1435 8.09865 12.4479C8.11499 12.5361 8.1395 12.6282 8.17219 12.7163C8.0006 12.7003 7.80041 12.7965 7.99243 13.4535C8.12725 13.9302 8.25798 14.0664 8.35195 14.0744Z" fill="#007CCC"/>
<path d="M14.0794 15.2998C14.1775 15.9248 14.6677 16.718 15.4766 16.9984C15.8075 17.1146 16.1712 17.1146 16.5021 16.9944C17.2987 16.714 17.8053 15.9207 17.9034 15.2998C18.0096 15.2918 18.1526 15.1436 18.3038 14.6188C18.5121 13.9017 18.2915 13.7935 18.1036 13.8095C18.1403 13.7094 18.1649 13.6132 18.1853 13.5131C18.4999 11.6542 17.5684 11.5861 17.5684 11.5861C17.5684 11.5861 17.4131 11.2937 17.0046 11.0733C16.7309 10.9131 16.3509 10.7929 15.8484 10.833C15.685 10.841 15.5338 10.873 15.3867 10.9171C15.2029 10.9772 15.0313 11.0693 14.8802 11.1735C14.6922 11.2897 14.5165 11.4339 14.3572 11.5941C14.108 11.8425 13.8874 12.163 13.7934 12.5636C13.7117 12.8641 13.7321 13.1725 13.7975 13.5091C13.8139 13.6052 13.8425 13.7054 13.8792 13.8055C13.6913 13.7895 13.4707 13.8936 13.679 14.6147C13.8343 15.1436 13.9732 15.2918 14.0794 15.2998Z" fill="#007CCC"/>
<path d="M25.2073 16.3022C24.1696 16.0418 23.328 15.4609 23.328 15.4609L22.6702 17.5001L22.5477 17.8846V17.8806L22.4414 18.2051L22.0942 17.2397C22.948 16.0739 21.9226 16.0859 21.8654 16.0859C21.8082 16.0859 20.7828 16.0739 21.6366 17.2397L21.2893 18.2051L21.1831 17.8806V17.8846L21.0606 17.5001L20.4028 15.4609C20.4028 15.4609 19.5612 16.0418 18.5235 16.3022C18.3683 16.3423 18.2416 16.4064 18.1436 16.4905C18.454 16.6748 19.0914 17.0193 19.8145 17.1996C20.7051 17.4199 21.1831 18.2532 21.0973 19.427C21.0973 19.447 21.0932 19.4991 21.0851 19.5752C21.3343 19.5953 21.5958 19.6073 21.8695 19.6073C24.3984 19.6073 25.9059 18.6458 25.9059 18.6458C25.9508 18.3894 25.9958 17.8005 25.9958 17.8005C26.0162 17.3679 25.9794 16.4945 25.2073 16.3022Z" fill="#007CCC"/>
<path d="M12.1795 17.1996C12.8985 17.0193 13.5358 16.6748 13.8504 16.4905C13.7483 16.4064 13.6257 16.3383 13.4705 16.3022C12.4328 16.0418 11.5912 15.4609 11.5912 15.4609L10.9334 17.5001L10.8108 17.8846V17.8806L10.7046 18.2051L10.3574 17.2397C11.2112 16.0739 10.1858 16.0859 10.1286 16.0859C10.0714 16.0859 9.04594 16.0739 9.89979 17.2397L9.55253 18.2051L9.44631 17.8806V17.8846L9.32375 17.5001L8.66599 15.4609C8.66599 15.4609 7.82439 16.0418 6.78669 16.3022C6.01454 16.4945 5.97777 17.3679 6.00637 17.8045C6.00637 17.8045 6.05131 18.3934 6.09625 18.6498C6.09625 18.6498 7.60378 19.6113 10.1327 19.6113C10.4064 19.6113 10.6679 19.5993 10.9171 19.5792C10.9089 19.5031 10.9048 19.451 10.9048 19.431C10.8108 18.2532 11.2929 17.4199 12.1795 17.1996Z" fill="#007CCC"/>
<path d="M19.6603 17.7437C18.5246 17.4592 17.5972 16.8223 17.5972 16.8223L16.8781 19.0577L16.7433 19.4783L16.7392 19.4743L16.6207 19.8309L16.2408 18.7733C17.1764 17.4953 16.0529 17.5073 15.9875 17.5073C15.9262 17.5073 14.8027 17.4913 15.7342 18.7733L15.3542 19.8309L15.2358 19.4743L15.2317 19.4783L15.0969 19.0577L14.3778 16.8223C14.3778 16.8223 13.4545 17.4592 12.3147 17.7437C11.469 17.956 11.424 18.9135 11.4608 19.3902C11.4608 19.3902 11.5098 20.0352 11.5589 20.3196C11.5589 20.3196 12.2575 20.7643 13.5076 21.0768L13.6588 20.9326C13.8059 20.7883 14.002 20.7082 14.2103 20.7082C14.3737 20.7082 14.5331 20.7563 14.6679 20.8524L14.6761 20.8564L14.8476 20.9806C14.8599 20.9766 14.8722 20.9686 14.8885 20.9646L14.9294 20.7443C14.9947 20.3757 15.3216 20.1033 15.7056 20.1033L16.2694 20.1073C16.6534 20.1073 16.9803 20.3797 17.0415 20.7523L17.0742 20.9606C17.0946 20.9686 17.1151 20.9766 17.1355 20.9846L17.3153 20.8604C17.4501 20.7683 17.6053 20.7202 17.7687 20.7202C17.9812 20.7202 18.1773 20.8004 18.3244 20.9486L18.4633 21.0848C19.7134 20.7723 20.4161 20.3276 20.4161 20.3276C20.4651 20.0432 20.5142 19.3982 20.5142 19.3982C20.5509 18.9135 20.5101 17.956 19.6603 17.7437Z" fill="#007CCC"/>
</g>
<defs>
<filter id="filter0_d_7873_14681" x="3" y="9" width="26" height="17.085" filterUnits="userSpaceOnUse" color-interpolation-filters="sRGB">
<feFlood flood-opacity="0" result="BackgroundImageFix"/>
<feColorMatrix in="SourceAlpha" type="matrix" values="0 0 0 0 0 0 0 0 0 0 0 0 0 0 0 0 0 0 127 0" result="hardAlpha"/>
<feOffset dy="2"/>
<feGaussianBlur stdDeviation="1.5"/>
<feComposite in2="hardAlpha" operator="out"/>
<feColorMatrix type="matrix" values="0 0 0 0 0 0 0 0 0 0 0 0 0 0 0 0 0 0 0.2 0"/>
<feBlend mode="normal" in2="BackgroundImageFix" result="effect1_dropShadow_7873_14681"/>
<feBlend mode="normal" in="SourceGraphic" in2="effect1_dropShadow_7873_14681" result="shape"/>
</filter>
</defs>
</svg>
