<svg width="32" height="32" viewBox="0 0 32 32" fill="none" xmlns="http://www.w3.org/2000/svg">
<rect width="32" height="32" rx="16" fill="#007FC3" fill-opacity="0.08"/>
<g clip-path="url(#clip0_7874_14754)">
<path d="M23.2112 7.23633H6.65465C6.29367 7.23633 6 7.53 6 7.89098V11.9457C6 12.3066 6.29367 12.6003 6.65465 12.6003H23.2112C23.5722 12.6003 23.8659 12.3066 23.8659 11.9457V7.89098C23.8659 7.53 23.5722 7.23633 23.2112 7.23633ZM10.3926 11.9668H6.65469C6.64305 11.9668 6.63355 11.9573 6.63355 11.9456V7.89094C6.63355 7.8793 6.64301 7.8698 6.65469 7.8698H10.3926V11.9668ZM23.2323 11.9457C23.2323 11.9573 23.2229 11.9668 23.2112 11.9668H11.0261V7.86984H23.2112C23.2228 7.86984 23.2323 7.8793 23.2323 7.89098V11.9457Z" fill="#0078B8"/>
<path d="M17.805 8.92578H12.0609C11.8859 8.92578 11.7441 9.06762 11.7441 9.24254C11.7441 9.41746 11.886 9.5593 12.0609 9.5593H17.805C17.98 9.5593 18.1218 9.41746 18.1218 9.24254C18.1218 9.06762 17.98 8.92578 17.805 8.92578Z" fill="#0078B8"/>
<path d="M21.8597 10.2773H15.1019C14.9269 10.2773 14.7852 10.4192 14.7852 10.5941C14.7852 10.769 14.927 10.9109 15.1019 10.9109H21.8597C22.0347 10.9109 22.1765 10.769 22.1765 10.5941C22.1765 10.4192 22.0346 10.2773 21.8597 10.2773Z" fill="#0078B8"/>
<path d="M13.7504 10.2773H12.0609C11.8859 10.2773 11.7441 10.4192 11.7441 10.5941C11.7441 10.769 11.886 10.9109 12.0609 10.9109H13.7504C13.9254 10.9109 14.0672 10.769 14.0672 10.5941C14.0672 10.4192 13.9254 10.2773 13.7504 10.2773Z" fill="#0078B8"/>
<path d="M8.51305 8.25C7.87258 8.25 7.35156 8.77105 7.35156 9.41148C7.35156 9.58645 7.4934 9.72824 7.66832 9.72824C7.84324 9.72824 7.98508 9.58641 7.98508 9.41148C7.98508 9.12035 8.22191 8.88352 8.51305 8.88352C8.80418 8.88352 9.04102 9.12039 9.04102 9.41148C9.04102 9.70258 8.80418 9.93945 8.51305 9.93945C8.33809 9.93945 8.19629 10.0813 8.19629 10.2562C8.19629 10.4311 8.33812 10.573 8.51305 10.573C9.15352 10.573 9.67453 10.052 9.67453 9.41148C9.67453 8.77102 9.15352 8.25 8.51305 8.25Z" fill="#0078B8"/>
<path d="M8.51668 10.9531H8.51332C8.33836 10.9531 8.19824 11.095 8.19824 11.2699C8.19824 11.4448 8.34176 11.5866 8.51672 11.5866C8.69168 11.5866 8.83348 11.4448 8.83348 11.2699C8.83348 11.095 8.6916 10.9531 8.51668 10.9531Z" fill="#0078B8"/>
<path d="M17.805 15.0078H12.0609C11.8859 15.0078 11.7441 15.1496 11.7441 15.3246C11.7441 15.4995 11.886 15.6413 12.0609 15.6413H17.805C17.98 15.6413 18.1218 15.4995 18.1218 15.3246C18.1218 15.1496 17.98 15.0078 17.805 15.0078Z" fill="#0078B8"/>
<path d="M20.8461 16.3594H15.1019C14.927 16.3594 14.7852 16.5012 14.7852 16.6761C14.7852 16.8511 14.927 16.9929 15.1019 16.9929H20.8461C21.021 16.9929 21.1628 16.8511 21.1628 16.6761C21.1628 16.5012 21.021 16.3594 20.8461 16.3594Z" fill="#0078B8"/>
<path d="M13.7504 16.3594H12.0609C11.8859 16.3594 11.7441 16.5012 11.7441 16.6761C11.7441 16.8511 11.886 16.9929 12.0609 16.9929H13.7504C13.9254 16.9929 14.0672 16.8511 14.0672 16.6761C14.0672 16.5012 13.9254 16.3594 13.7504 16.3594Z" fill="#0078B8"/>
<path d="M8.51305 14.332C7.87258 14.332 7.35156 14.853 7.35156 15.4935C7.35156 15.6685 7.4934 15.8103 7.66832 15.8103C7.84324 15.8103 7.98508 15.6684 7.98508 15.4935C7.98508 15.2024 8.22191 14.9655 8.51305 14.9655C8.80418 14.9655 9.04102 15.2024 9.04102 15.4935C9.04102 15.7846 8.80418 16.0215 8.51305 16.0215C8.33809 16.0215 8.19629 16.1633 8.19629 16.3382C8.19629 16.5132 8.33812 16.655 8.51305 16.655C9.15352 16.655 9.67453 16.134 9.67453 15.4935C9.67453 14.853 9.15352 14.332 8.51305 14.332Z" fill="#0078B8"/>
<path d="M8.51668 17.0352H8.51332C8.33836 17.0352 8.19824 17.177 8.19824 17.3519C8.19824 17.5268 8.34176 17.6687 8.51672 17.6687C8.69168 17.6687 8.83348 17.5268 8.83348 17.3519C8.83348 17.177 8.6916 17.0352 8.51668 17.0352Z" fill="#0078B8"/>
<path d="M17.805 21.0898H12.0609C11.8859 21.0898 11.7441 21.2317 11.7441 21.4066C11.7441 21.5815 11.886 21.7234 12.0609 21.7234H17.805C17.98 21.7234 18.1218 21.5815 18.1218 21.4066C18.1218 21.2317 17.98 21.0898 17.805 21.0898Z" fill="#0078B8"/>
<path d="M21.1839 22.4414H15.1019C14.927 22.4414 14.7852 22.5832 14.7852 22.7582C14.7852 22.9331 14.927 23.0749 15.1019 23.0749H21.1839C21.3589 23.0749 21.5007 22.9331 21.5007 22.7582C21.5007 22.5832 21.3589 22.4414 21.1839 22.4414Z" fill="#0078B8"/>
<path d="M13.7504 22.4414H12.0609C11.8859 22.4414 11.7441 22.5832 11.7441 22.7582C11.7441 22.9331 11.886 23.0749 12.0609 23.0749H13.7504C13.9254 23.0749 14.0672 22.9331 14.0672 22.7582C14.0672 22.5832 13.9254 22.4414 13.7504 22.4414Z" fill="#0078B8"/>
<path d="M8.51305 20.4141C7.87258 20.4141 7.35156 20.9351 7.35156 21.5755C7.35156 21.7505 7.4934 21.8923 7.66832 21.8923C7.84324 21.8923 7.98508 21.7505 7.98508 21.5755C7.98508 21.2844 8.22191 21.0476 8.51305 21.0476C8.80418 21.0476 9.04102 21.2844 9.04102 21.5755C9.04102 21.8667 8.80418 22.1035 8.51305 22.1035C8.33809 22.1035 8.19629 22.2454 8.19629 22.4203C8.19629 22.5952 8.33812 22.737 8.51305 22.737C9.15352 22.737 9.67453 22.216 9.67453 21.5755C9.67453 20.9351 9.15352 20.4141 8.51305 20.4141Z" fill="#0078B8"/>
<path d="M8.51668 23.1172H8.51332C8.33836 23.1172 8.19824 23.259 8.19824 23.4339C8.19824 23.6089 8.34176 23.7507 8.51672 23.7507C8.69168 23.7507 8.83348 23.6089 8.83348 23.4339C8.83348 23.259 8.6916 23.1172 8.51668 23.1172Z" fill="#0078B8"/>
<path d="M25.9865 20.2533C26.0202 20.1416 25.9897 20.0204 25.9072 19.9379L23.8659 17.8965V13.973C23.8659 13.612 23.5722 13.3184 23.2112 13.3184H6.65465C6.29367 13.3184 6 13.612 6 13.973V18.0277C6 18.3887 6.29367 18.6823 6.65465 18.6823H21.8808V19.4004H6.65465C6.29367 19.4004 6 19.694 6 20.055V24.1097C6 24.4707 6.29367 24.7644 6.65465 24.7644H23.2112C23.5722 24.7644 23.8659 24.4707 23.8659 24.1097V23.139L24.1613 23.8523C24.1935 23.93 24.2551 23.9916 24.3328 24.0238C24.3716 24.0398 24.4128 24.0479 24.454 24.0479C24.4952 24.0479 24.5364 24.0399 24.5752 24.0238L25.7118 23.553C25.8734 23.486 25.9502 23.3007 25.8832 23.1391L24.8534 20.653L25.746 20.4723C25.8605 20.4492 25.9529 20.365 25.9865 20.2533ZM10.3926 18.0488H6.65469C6.64305 18.0488 6.63355 18.0394 6.63355 18.0277V13.973C6.63355 13.9614 6.64301 13.9519 6.65469 13.9519H10.3926V18.0488ZM11.0261 18.0488V13.9519H23.2112C23.2229 13.9519 23.2323 13.9614 23.2323 13.973V17.263L22.4215 16.4522C22.3309 16.3616 22.1946 16.3345 22.0763 16.3835C21.9579 16.4325 21.8808 16.5481 21.8808 16.6762V18.0489L11.0261 18.0488ZM10.3926 24.1308H6.65469C6.64305 24.1308 6.63355 24.1214 6.63355 24.1097V20.055C6.63355 20.0434 6.64301 20.0339 6.65469 20.0339H10.3926V24.1308ZM23.2323 24.1097C23.2323 24.1213 23.2229 24.1308 23.2112 24.1308H11.0261V20.0339H21.8808V21.5971C21.8808 21.7135 21.9446 21.8205 22.047 21.8758C22.1494 21.9311 22.2739 21.9259 22.3712 21.8621L23.1308 21.3642L23.2323 21.6095V24.1097ZM24.3508 20.1083C24.258 20.1271 24.1785 20.1864 24.134 20.27C24.0895 20.3536 24.0847 20.4526 24.1209 20.5401L25.1767 23.0889L24.6255 23.3173L23.5697 20.7684C23.5336 20.6812 23.4605 20.6147 23.3704 20.587C23.3398 20.5775 23.3084 20.5729 23.2771 20.5729C23.2161 20.5729 23.1556 20.5905 23.1034 20.6247L22.5144 21.0108V17.4409L25.042 19.9685L24.3508 20.1083Z" fill="#0078B8"/>
</g>
<defs>
<clipPath id="clip0_7874_14754">
<rect width="20" height="20" fill="white" transform="translate(6 6)"/>
</clipPath>
</defs>
</svg>
