<svg width="32" height="32" viewBox="0 0 32 32" fill="none" xmlns="http://www.w3.org/2000/svg">
<rect width="32" height="32" rx="16" fill="#007FC3" fill-opacity="0.08"/>
<g clip-path="url(#clip0_7873_14715)">
<g filter="url(#filter0_d_7873_14715)">
<path d="M10.2234 15.5318C8.20317 15.5318 6.55957 13.8882 6.55957 11.868C6.55957 9.8477 8.20317 8.2041 10.2234 8.2041C12.2437 8.2041 13.8873 9.8477 13.8873 11.868C13.8873 13.8882 12.2437 15.5318 10.2234 15.5318ZM10.2234 9.06352C8.67703 9.06352 7.41895 10.3216 7.41895 11.868C7.41895 13.4144 8.67703 14.6725 10.2234 14.6725C11.7698 14.6725 13.0279 13.4144 13.0279 11.868C13.0279 10.3216 11.7698 9.06352 10.2234 9.06352Z" fill="black"/>
<path d="M9.11027 11.8533C8.60981 11.8533 8.20264 11.4462 8.20264 10.9457C8.20264 10.4453 8.60981 10.0381 9.11027 10.0381C9.61072 10.0381 10.0179 10.4453 10.0179 10.9457C10.0179 11.4462 9.61072 11.8533 9.11027 11.8533ZM9.11027 10.8975C9.08367 10.8975 9.06201 10.9192 9.06201 10.9458C9.06201 10.9724 9.08367 10.994 9.11027 10.994C9.13686 10.994 9.15848 10.9724 9.15848 10.9458C9.15848 10.9191 9.13686 10.8975 9.11027 10.8975Z" fill="black"/>
<path d="M11.267 11.8533C10.7665 11.8533 10.3594 11.4462 10.3594 10.9457C10.3594 10.4453 10.7665 10.0381 11.267 10.0381C11.7674 10.0381 12.1746 10.4453 12.1746 10.9457C12.1746 11.4462 11.7674 11.8533 11.267 11.8533ZM11.267 10.8975C11.2404 10.8975 11.2188 10.9192 11.2188 10.9458C11.2188 10.9724 11.2404 10.994 11.267 10.994C11.2936 10.994 11.3152 10.9724 11.3152 10.9458C11.3152 10.9191 11.2936 10.8975 11.267 10.8975Z" fill="black"/>
<path d="M10.2235 14.3006C9.50254 14.3006 8.91602 13.7141 8.91602 12.9932C8.91602 12.7558 9.10839 12.5635 9.3457 12.5635H11.1011C11.3384 12.5635 11.5308 12.7558 11.5308 12.9932C11.5308 13.7141 10.9443 14.3006 10.2235 14.3006ZM10.0964 13.4229C10.1769 13.4467 10.2699 13.4467 10.3505 13.4229H10.0964Z" fill="black"/>
<path d="M21.7762 15.9879C19.7559 15.9879 18.1123 14.3443 18.1123 12.324C18.1123 10.3038 19.7559 8.66016 21.7762 8.66016C23.7964 8.66016 25.44 10.3038 25.44 12.324C25.44 14.3443 23.7964 15.9879 21.7762 15.9879ZM21.7762 9.51957C20.2298 9.51957 18.9717 10.7777 18.9717 12.3241C18.9717 13.8705 20.2298 15.1285 21.7762 15.1285C23.3226 15.1285 24.5806 13.8705 24.5806 12.3241C24.5806 10.7777 23.3225 9.51957 21.7762 9.51957Z" fill="black"/>
<path d="M20.663 12.3104C20.1625 12.3104 19.7554 11.9032 19.7554 11.4027C19.7554 10.9023 20.1625 10.4951 20.663 10.4951C21.1634 10.4951 21.5706 10.9023 21.5706 11.4027C21.5706 11.9032 21.1635 12.3104 20.663 12.3104ZM20.663 11.3545C20.6364 11.3545 20.6147 11.3761 20.6147 11.4027C20.6147 11.4293 20.6364 11.451 20.663 11.451C20.6896 11.451 20.7112 11.4294 20.7112 11.4027C20.7112 11.3761 20.6896 11.3545 20.663 11.3545Z" fill="black"/>
<path d="M22.8197 12.3104C22.3193 12.3104 21.9121 11.9032 21.9121 11.4027C21.9121 10.9023 22.3193 10.4951 22.8197 10.4951C23.3202 10.4951 23.7273 10.9023 23.7273 11.4027C23.7273 11.9032 23.3202 12.3104 22.8197 12.3104ZM22.8197 11.3545C22.7931 11.3545 22.7715 11.3761 22.7715 11.4027C22.7715 11.4293 22.7931 11.451 22.8197 11.451C22.8463 11.451 22.868 11.4294 22.868 11.4027C22.868 11.3761 22.8463 11.3545 22.8197 11.3545Z" fill="black"/>
<path d="M22.6538 14.7566H20.8984C20.6611 14.7566 20.4688 14.5643 20.4688 14.3269C20.4688 13.606 21.0552 13.0195 21.776 13.0195C22.4969 13.0195 23.0834 13.606 23.0834 14.3269C23.0834 14.5643 22.8911 14.7566 22.6538 14.7566ZM21.649 13.8973H21.9032C21.8225 13.8734 21.7296 13.8734 21.649 13.8973Z" fill="black"/>
<path d="M20.2788 25.7949C20.2785 25.7949 20.2782 25.7949 20.2779 25.7949C20.2774 25.7949 20.277 25.7949 20.2765 25.7949L15.3013 25.7787C15.0879 25.778 14.9073 25.6207 14.8773 25.4095L14.4071 22.1034L13.869 21.5287L10.7359 21.1379C10.5112 21.1099 10.3468 20.9124 10.3601 20.6863L10.4437 19.261C10.4559 19.053 10.6156 18.8838 10.8226 18.8594L14.2724 18.4542L14.2028 12.095C14.2024 12.0602 14.2063 12.0255 14.2143 11.9917C14.2369 11.8957 14.2707 11.8027 14.3147 11.7151C14.3374 11.6691 14.3623 11.6253 14.3896 11.5832C14.6377 11.2009 15.067 10.9727 15.5382 10.9727C15.6257 10.9727 15.714 10.9807 15.8006 10.9965C15.8011 10.9965 15.8016 10.9966 15.8021 10.9967C15.8076 10.9976 15.813 10.9985 15.8185 10.9996L15.8547 11.0064C16.0086 11.0351 16.2662 11.083 16.4471 11.3019C16.7887 11.7157 16.8472 12.428 16.8777 13.122C16.8807 13.1895 16.8833 13.2507 16.8865 13.3032C16.8868 13.3085 16.887 13.3138 16.8872 13.3191L16.9461 15.8555L20.4666 16.158C20.6849 16.1768 20.8541 16.3568 20.8594 16.5758L20.9692 21.14C20.9698 21.1659 20.9681 21.1919 20.964 21.2175L20.6764 23.0349L20.7072 25.3321C20.708 25.343 20.7084 25.3541 20.7084 25.3653C20.7085 25.6026 20.5161 25.7949 20.2788 25.7949ZM15.6757 24.9205L19.8424 24.9341L19.8167 23.0097C19.8163 22.9853 19.8181 22.9609 19.8219 22.9367L20.1092 21.1216L20.0096 16.9813L16.4888 16.6788C16.2704 16.66 16.1011 16.4798 16.096 16.2606L16.0283 13.3468C16.0251 13.2922 16.0223 13.2291 16.0192 13.1599C16.0054 12.8463 15.9737 12.1262 15.8028 11.8737C15.7753 11.8657 15.7299 11.8573 15.6976 11.8513L15.6691 11.8459C15.6586 11.8444 15.6493 11.8426 15.641 11.8409C15.6069 11.835 15.5724 11.832 15.5383 11.832C15.3594 11.832 15.1996 11.9138 15.1107 12.0507C15.1016 12.0647 15.0928 12.0804 15.0838 12.0986C15.0756 12.1149 15.0686 12.1312 15.0629 12.1476L15.1361 18.8312C15.1385 19.0509 14.9748 19.237 14.7565 19.2626L11.2806 19.6709L11.2416 20.3349L14.1296 20.6952C14.2293 20.7076 14.3215 20.7545 14.3902 20.8279L15.1271 21.6151C15.1874 21.6795 15.2264 21.7609 15.2388 21.8482L15.6757 24.9205Z" fill="black"/>
<path d="M10.2234 15.1021C12.0096 15.1021 13.4576 13.6541 13.4576 11.868C13.4576 10.0818 12.0096 8.63379 10.2234 8.63379C8.43725 8.63379 6.98926 10.0818 6.98926 11.868C6.98926 13.6541 8.43725 15.1021 10.2234 15.1021Z" fill="#49B848"/>
<path d="M10.2234 15.5318C8.20317 15.5318 6.55957 13.8882 6.55957 11.868C6.55957 9.8477 8.20317 8.2041 10.2234 8.2041C12.2437 8.2041 13.8873 9.8477 13.8873 11.868C13.8873 13.8882 12.2437 15.5318 10.2234 15.5318ZM10.2234 9.06352C8.67703 9.06352 7.41895 10.3216 7.41895 11.868C7.41895 13.4144 8.67703 14.6725 10.2234 14.6725C11.7698 14.6725 13.0279 13.4144 13.0279 11.868C13.0279 10.3216 11.7698 9.06352 10.2234 9.06352Z" fill="black"/>
<path d="M9.11027 11.8533C8.60981 11.8533 8.20264 11.4462 8.20264 10.9457C8.20264 10.4453 8.60981 10.0381 9.11027 10.0381C9.61072 10.0381 10.0179 10.4453 10.0179 10.9457C10.0179 11.4462 9.61072 11.8533 9.11027 11.8533ZM9.11027 10.8975C9.08367 10.8975 9.06201 10.9192 9.06201 10.9458C9.06201 10.9724 9.08367 10.994 9.11027 10.994C9.13686 10.994 9.15848 10.9724 9.15848 10.9458C9.15848 10.9191 9.13686 10.8975 9.11027 10.8975Z" fill="black"/>
<path d="M11.267 11.8533C10.7665 11.8533 10.3594 11.4462 10.3594 10.9457C10.3594 10.4453 10.7665 10.0381 11.267 10.0381C11.7674 10.0381 12.1746 10.4453 12.1746 10.9457C12.1746 11.4462 11.7674 11.8533 11.267 11.8533ZM11.267 10.8975C11.2404 10.8975 11.2188 10.9192 11.2188 10.9458C11.2188 10.9724 11.2404 10.994 11.267 10.994C11.2936 10.994 11.3152 10.9724 11.3152 10.9458C11.3152 10.9191 11.2936 10.8975 11.267 10.8975Z" fill="black"/>
<path d="M10.2235 14.3006C9.50254 14.3006 8.91602 13.7141 8.91602 12.9932C8.91602 12.7558 9.10839 12.5635 9.3457 12.5635H11.1011C11.3384 12.5635 11.5308 12.7558 11.5308 12.9932C11.5308 13.7141 10.9443 14.3006 10.2235 14.3006ZM10.0964 13.4229C10.1769 13.4467 10.2699 13.4467 10.3505 13.4229H10.0964Z" fill="black"/>
<path d="M21.7762 15.5582C23.5623 15.5582 25.0103 14.1102 25.0103 12.324C25.0103 10.5378 23.5623 9.08984 21.7762 9.08984C19.99 9.08984 18.542 10.5378 18.542 12.324C18.542 14.1102 19.99 15.5582 21.7762 15.5582Z" fill="#FFA411"/>
<path d="M21.7762 15.9879C19.7559 15.9879 18.1123 14.3443 18.1123 12.324C18.1123 10.3038 19.7559 8.66016 21.7762 8.66016C23.7964 8.66016 25.44 10.3038 25.44 12.324C25.44 14.3443 23.7964 15.9879 21.7762 15.9879ZM21.7762 9.51957C20.2298 9.51957 18.9717 10.7777 18.9717 12.3241C18.9717 13.8705 20.2298 15.1285 21.7762 15.1285C23.3226 15.1285 24.5806 13.8705 24.5806 12.3241C24.5806 10.7777 23.3225 9.51957 21.7762 9.51957Z" fill="black"/>
<path d="M20.663 12.3104C20.1625 12.3104 19.7554 11.9032 19.7554 11.4027C19.7554 10.9023 20.1625 10.4951 20.663 10.4951C21.1634 10.4951 21.5706 10.9023 21.5706 11.4027C21.5706 11.9032 21.1635 12.3104 20.663 12.3104ZM20.663 11.3545C20.6364 11.3545 20.6147 11.3761 20.6147 11.4027C20.6147 11.4293 20.6364 11.451 20.663 11.451C20.6896 11.451 20.7112 11.4294 20.7112 11.4027C20.7112 11.3761 20.6896 11.3545 20.663 11.3545Z" fill="black"/>
<path d="M22.8197 12.3104C22.3193 12.3104 21.9121 11.9032 21.9121 11.4027C21.9121 10.9023 22.3193 10.4951 22.8197 10.4951C23.3202 10.4951 23.7273 10.9023 23.7273 11.4027C23.7273 11.9032 23.3202 12.3104 22.8197 12.3104ZM22.8197 11.3545C22.7931 11.3545 22.7715 11.3761 22.7715 11.4027C22.7715 11.4293 22.7931 11.451 22.8197 11.451C22.8463 11.451 22.868 11.4294 22.868 11.4027C22.868 11.3761 22.8463 11.3545 22.8197 11.3545Z" fill="black"/>
<path d="M22.6538 14.7566H20.8984C20.6611 14.7566 20.4688 14.5643 20.4688 14.3269C20.4688 13.606 21.0552 13.0195 21.776 13.0195C22.4969 13.0195 23.0834 13.606 23.0834 14.3269C23.0834 14.5643 22.8911 14.7566 22.6538 14.7566ZM21.649 13.8973H21.9032C21.8225 13.8734 21.7296 13.8734 21.649 13.8973Z" fill="black"/>
<path d="M20.2779 25.3653L15.3027 25.349L14.8133 21.9087L14.0764 21.1216L10.7891 20.7115L10.8727 19.2862L14.7063 18.8359L14.6374 12.5458L14.6325 12.0904C14.6471 12.0283 14.6692 11.9666 14.6987 11.908C14.7139 11.8772 14.7308 11.8468 14.7501 11.8169C14.9595 11.4942 15.3465 11.3504 15.7235 11.4192C15.7277 11.4201 15.7318 11.421 15.7364 11.4214C15.8668 11.4468 16.0253 11.466 16.1158 11.5756C16.4362 11.9637 16.4324 12.9116 16.4576 13.3291L16.5255 16.2507L20.4298 16.5862L20.5397 21.1503L20.2463 23.004L20.2779 25.3653Z" fill="#0078B8"/>
<path d="M20.2788 25.7949C20.2785 25.7949 20.2782 25.7949 20.2779 25.7949C20.2774 25.7949 20.277 25.7949 20.2765 25.7949L15.3013 25.7787C15.0879 25.778 14.9073 25.6207 14.8773 25.4095L14.4071 22.1034L13.869 21.5287L10.7359 21.1379C10.5112 21.1099 10.3468 20.9124 10.3601 20.6863L10.4437 19.261C10.4559 19.053 10.6156 18.8838 10.8226 18.8594L14.2724 18.4542L14.2028 12.095C14.2024 12.0602 14.2063 12.0255 14.2143 11.9917C14.2369 11.8957 14.2707 11.8027 14.3147 11.7151C14.3374 11.6691 14.3623 11.6253 14.3896 11.5832C14.6377 11.2009 15.067 10.9727 15.5382 10.9727C15.6257 10.9727 15.714 10.9807 15.8006 10.9965C15.8011 10.9965 15.8016 10.9966 15.8021 10.9967C15.8076 10.9976 15.813 10.9985 15.8185 10.9996L15.8547 11.0064C16.0086 11.0351 16.2662 11.083 16.4471 11.3019C16.7887 11.7157 16.8472 12.428 16.8777 13.122C16.8807 13.1895 16.8833 13.2507 16.8865 13.3032C16.8868 13.3085 16.887 13.3138 16.8872 13.3191L16.9461 15.8555L20.4666 16.158C20.6849 16.1768 20.8541 16.3568 20.8594 16.5758L20.9692 21.14C20.9698 21.1659 20.9681 21.1919 20.964 21.2175L20.6764 23.0349L20.7072 25.3321C20.708 25.343 20.7084 25.3541 20.7084 25.3653C20.7085 25.6026 20.5161 25.7949 20.2788 25.7949ZM15.6757 24.9205L19.8424 24.9341L19.8167 23.0097C19.8163 22.9853 19.8181 22.9609 19.8219 22.9367L20.1092 21.1216L20.0096 16.9813L16.4888 16.6788C16.2704 16.66 16.1011 16.4798 16.096 16.2606L16.0283 13.3468C16.0251 13.2922 16.0223 13.2291 16.0192 13.1599C16.0054 12.8463 15.9737 12.1262 15.8028 11.8737C15.7753 11.8657 15.7299 11.8573 15.6976 11.8513L15.6691 11.8459C15.6586 11.8444 15.6493 11.8426 15.641 11.8409C15.6069 11.835 15.5724 11.832 15.5383 11.832C15.3594 11.832 15.1996 11.9138 15.1107 12.0507C15.1016 12.0647 15.0928 12.0804 15.0838 12.0986C15.0756 12.1149 15.0686 12.1312 15.0629 12.1476L15.1361 18.8312C15.1385 19.0509 14.9748 19.237 14.7565 19.2626L11.2806 19.6709L11.2416 20.3349L14.1296 20.6952C14.2293 20.7076 14.3215 20.7545 14.3902 20.8279L15.1271 21.6151C15.1874 21.6795 15.2264 21.7609 15.2388 21.8482L15.6757 24.9205Z" fill="black"/>
</g>
</g>
<defs>
<filter id="filter0_d_7873_14715" x="3.55957" y="7.2041" width="24.8804" height="23.5908" filterUnits="userSpaceOnUse" color-interpolation-filters="sRGB">
<feFlood flood-opacity="0" result="BackgroundImageFix"/>
<feColorMatrix in="SourceAlpha" type="matrix" values="0 0 0 0 0 0 0 0 0 0 0 0 0 0 0 0 0 0 127 0" result="hardAlpha"/>
<feOffset dy="2"/>
<feGaussianBlur stdDeviation="1.5"/>
<feComposite in2="hardAlpha" operator="out"/>
<feColorMatrix type="matrix" values="0 0 0 0 0 0 0 0 0 0 0 0 0 0 0 0 0 0 0.25 0"/>
<feBlend mode="normal" in2="BackgroundImageFix" result="effect1_dropShadow_7873_14715"/>
<feBlend mode="normal" in="SourceGraphic" in2="effect1_dropShadow_7873_14715" result="shape"/>
</filter>
<clipPath id="clip0_7873_14715">
<rect width="22" height="22" fill="white" transform="translate(5 6)"/>
</clipPath>
</defs>
</svg>
