<svg width="32" height="32" viewBox="0 0 32 32" fill="none" xmlns="http://www.w3.org/2000/svg">
<g clip-path="url(#clip0_7873_14689)">
<rect width="32" height="32" rx="16" fill="#007FC3" fill-opacity="0.08"/>
<g clip-path="url(#clip1_7873_14689)" filter="url(#filter0_d_7873_14689)">
<path d="M24.4043 8H7.59574C6.71582 8 6 8.71582 6 9.59574V19.8085C6 20.6884 6.71582 21.4043 7.59574 21.4043H10.0425C10.2188 21.4043 10.3617 21.2614 10.3617 21.0851C10.3617 20.9088 10.2188 20.766 10.0425 20.766H7.59574C7.06777 20.766 6.63828 20.3364 6.63828 19.8085V9.59574C6.63828 9.06781 7.06777 8.63828 7.59574 8.63828H24.4043C24.9322 8.63828 25.3617 9.06781 25.3617 9.59574V19.8085C25.3617 20.3364 24.9322 20.766 24.4043 20.766H22.1702C21.994 20.766 21.8511 20.9088 21.8511 21.0851C21.8511 21.2614 21.994 21.4043 22.1702 21.4043H24.4043C25.2842 21.4043 26 20.6884 26 19.8085V9.59574C26 8.71582 25.2842 8 24.4043 8Z" fill="#007CCC"/>
<path d="M23.1272 9.27637H8.87187C8.69562 9.27637 8.55273 9.41922 8.55273 9.59551V19.8083C8.55273 19.9846 8.69562 20.1274 8.87187 20.1274H10.0421C10.2183 20.1274 10.3612 19.9846 10.3612 19.8083C10.3612 19.632 10.2183 19.4891 10.0421 19.4891H9.19102V9.91465H22.808V19.4891H22.1698C21.9935 19.4891 21.8506 19.632 21.8506 19.8082C21.8506 19.9845 21.9935 20.1274 22.1698 20.1274H23.1272C23.3035 20.1274 23.4464 19.9845 23.4464 19.8082V9.59551C23.4463 9.41922 23.3034 9.27637 23.1272 9.27637Z" fill="#007CCC"/>
<path d="M7.59551 15.0211C7.77176 15.0211 7.91465 14.8782 7.91465 14.702C7.91465 14.5257 7.77176 14.3828 7.59551 14.3828C7.41925 14.3828 7.27637 14.5257 7.27637 14.702C7.27637 14.8782 7.41925 15.0211 7.59551 15.0211Z" fill="#007CCC"/>
<path d="M19.8298 16.8302C19.5052 16.8302 19.2067 16.9429 18.9705 17.1307C18.7573 16.6414 18.2691 16.2983 17.7021 16.2983C17.3776 16.2983 17.079 16.4109 16.8429 16.5988C16.6296 16.1095 16.1415 15.7664 15.5745 15.7664C15.3004 15.7664 15.045 15.8468 14.8298 15.9849V13.4259C14.8298 12.6634 14.2094 12.043 13.4468 12.043C12.6843 12.043 12.0639 12.6634 12.0639 13.4259V18.4635C11.4547 18.608 11 19.1561 11 19.8089V21.4046C11 23.0591 11.8119 24.6018 13.1277 25.5509V27.6813C13.1277 27.8575 13.2705 28.0004 13.4468 28.0004C13.623 28.0004 13.7659 27.8575 13.7659 27.6813V25.9435C13.8266 25.9748 13.8879 26.0054 13.9502 26.0344C13.9938 26.0548 14.0397 26.0644 14.0849 26.0644C14.205 26.0644 14.3202 25.9961 14.3743 25.8801C14.4488 25.7204 14.3797 25.5304 14.22 25.4559C12.6516 24.7243 11.6383 23.1341 11.6383 21.4046V19.8089C11.6383 19.5126 11.8127 19.2569 12.0638 19.1371V21.0855C12.0638 21.2618 12.2067 21.4046 12.383 21.4046C12.5592 21.4046 12.7021 21.2618 12.7021 21.0855V13.4259C12.7021 13.0154 13.0362 12.6813 13.4468 12.6813C13.8574 12.6813 14.1915 13.0154 14.1915 13.4259V18.7628C14.1915 18.9391 14.3344 19.0819 14.5106 19.0819C14.6869 19.0819 14.8298 18.9391 14.8298 18.7628V17.1493C14.8298 16.7387 15.1639 16.4046 15.5745 16.4046C15.985 16.4046 16.3191 16.7387 16.3191 17.1493V18.7451C16.3191 18.9214 16.462 19.0642 16.6383 19.0642C16.8145 19.0642 16.9574 18.9214 16.9574 18.7451V17.6813C16.9574 17.2707 17.2915 16.9366 17.7021 16.9366C18.1127 16.9366 18.4468 17.2707 18.4468 17.6813V18.7451C18.4468 18.9214 18.5897 19.0642 18.7659 19.0642C18.9422 19.0642 19.0851 18.9214 19.0851 18.7451V18.2132C19.0851 17.8026 19.4192 17.4685 19.8298 17.4685C20.2404 17.4685 20.5745 17.8026 20.5745 18.2132V21.4046C20.5745 23.1341 19.5611 24.7243 17.9927 25.4559C17.833 25.5304 17.7639 25.7203 17.8384 25.8801C17.8926 25.9962 18.0077 26.0644 18.1279 26.0644C18.173 26.0644 18.2189 26.0547 18.2626 26.0344C18.3248 26.0053 18.3861 25.9748 18.4468 25.9435V27.6813C18.4468 27.8575 18.5897 28.0004 18.7659 28.0004C18.9422 28.0004 19.0851 27.8575 19.0851 27.6813V25.5509C20.4008 24.6018 21.2127 23.0591 21.2127 21.4046V18.2132C21.2128 17.4505 20.5923 16.8302 19.8298 16.8302Z" fill="#007CCC"/>
</g>
</g>
<defs>
<filter id="filter0_d_7873_14689" x="3" y="7" width="26" height="26" filterUnits="userSpaceOnUse" color-interpolation-filters="sRGB">
<feFlood flood-opacity="0" result="BackgroundImageFix"/>
<feColorMatrix in="SourceAlpha" type="matrix" values="0 0 0 0 0 0 0 0 0 0 0 0 0 0 0 0 0 0 127 0" result="hardAlpha"/>
<feOffset dy="2"/>
<feGaussianBlur stdDeviation="1.5"/>
<feComposite in2="hardAlpha" operator="out"/>
<feColorMatrix type="matrix" values="0 0 0 0 0 0 0 0 0 0 0 0 0 0 0 0 0 0 0.2 0"/>
<feBlend mode="normal" in2="BackgroundImageFix" result="effect1_dropShadow_7873_14689"/>
<feBlend mode="normal" in="SourceGraphic" in2="effect1_dropShadow_7873_14689" result="shape"/>
</filter>
<clipPath id="clip0_7873_14689">
<rect width="32" height="32" rx="16" fill="white"/>
</clipPath>
<clipPath id="clip1_7873_14689">
<rect width="20" height="20" fill="white" transform="translate(6 8)"/>
</clipPath>
</defs>
</svg>
