<svg width="31" height="36" viewBox="0 0 31 36" fill="none" xmlns="http://www.w3.org/2000/svg">
<g clip-path="url(#clip0_2741_48442)">
<path fill-rule="evenodd" clip-rule="evenodd" d="M0 0.855C0 0.382797 0.37672 0 0.841429 0H17.7143L31 13.5V35.145C31 35.6172 30.6233 36 30.1586 36H0.841429C0.376721 36 0 35.6172 0 35.145V0.855Z" fill="#025D8D"/>
<path d="M10.6294 26.1627C10.6294 26.4987 10.5497 26.8137 10.3903 27.1078C10.2367 27.4018 9.99168 27.6387 9.65511 27.8187C9.32439 27.9987 8.90518 28.0888 8.39738 28.0888H7.36109V30.5008H6.12109V24.2188H8.39738C8.87568 24.2188 9.28311 24.3027 9.61968 24.4708C9.95625 24.6388 10.2072 24.8697 10.3725 25.1638C10.5437 25.4578 10.6294 25.7908 10.6294 26.1627ZM8.34424 27.0717C8.68672 27.0717 8.94061 26.9937 9.10597 26.8377C9.27124 26.6757 9.35397 26.4507 9.35397 26.1627C9.35397 25.5507 9.0174 25.2448 8.34424 25.2448H7.36109V27.0717H8.34424ZM14.1138 24.2188C14.7633 24.2188 15.3331 24.3477 15.8232 24.6058C16.3192 24.8638 16.7001 25.2328 16.9658 25.7127C17.2374 26.1868 17.3732 26.7387 17.3732 27.3687C17.3732 27.9987 17.2374 28.5507 16.9658 29.0248C16.7001 29.4928 16.3192 29.8557 15.8232 30.1138C15.3331 30.3718 14.7633 30.5008 14.1138 30.5008H11.9527V24.2188H14.1138ZM14.0695 29.4297C14.719 29.4297 15.2209 29.2498 15.5752 28.8898C15.9295 28.5297 16.1067 28.0228 16.1067 27.3687C16.1067 26.7147 15.9295 26.2048 15.5752 25.8388C15.2209 25.4668 14.719 25.2808 14.0695 25.2808H13.1927V29.4297H14.0695ZM22.5617 24.2188V25.2358H19.9842V26.8467H21.9594V27.8458H19.9842V30.5008H18.7442V24.2188H22.5617Z" fill="white"/>
<path fill-rule="evenodd" clip-rule="evenodd" d="M17.7148 0L31.0006 13.5H18.5563C18.0915 13.5 17.7148 13.1172 17.7148 12.645V0Z" fill="#00A7FF"/>
</g>
<defs>
<clipPath id="clip0_2741_48442">
<rect width="31" height="36" rx="5" fill="white"/>
</clipPath>
</defs>
</svg>
