<svg width="29" height="19" viewBox="0 0 29 19" fill="none" xmlns="http://www.w3.org/2000/svg">
<g filter="url(#filter0_d_3906_16540)">
<path d="M19.088 8.21204C19.1857 8.83013 19.6695 9.61796 20.4728 9.89218C20.8013 10.0054 21.1608 10.0054 21.4892 9.89218C22.2748 9.61361 22.7808 8.83013 22.8785 8.21204C22.985 8.20334 23.1226 8.0597 23.2735 7.53738C23.4777 6.82354 23.2602 6.71907 23.0782 6.73648C23.1137 6.63637 23.1403 6.54061 23.1581 6.44486C23.4688 4.60367 22.5456 4.53838 22.5456 4.53838C22.5456 4.53838 22.3902 4.2511 21.9863 4.02912C21.7156 3.87242 21.3383 3.75054 20.8412 3.79407C20.6814 3.80278 20.5261 3.83324 20.3841 3.88112C20.2021 3.94206 20.0334 4.02912 19.8825 4.13358C19.6961 4.2511 19.523 4.39039 19.3676 4.55144C19.1235 4.79519 18.906 5.11293 18.8084 5.50903C18.7285 5.80501 18.7463 6.11405 18.8128 6.44486C18.8306 6.54061 18.8572 6.64073 18.8927 6.73648C18.7063 6.71907 18.4888 6.82354 18.6974 7.53738C18.8439 8.05535 18.9815 8.20334 19.088 8.21204Z" fill="#0078B8"/>
<path d="M6.33217 8.21204C6.42981 8.83013 6.9136 9.61796 7.71696 9.89218C8.04541 10.0054 8.40493 10.0054 8.73337 9.89218C9.51898 9.61361 10.025 8.83013 10.1226 8.21204C10.2291 8.20334 10.3667 8.0597 10.5176 7.53738C10.7218 6.82354 10.5043 6.71907 10.3223 6.73648C10.3578 6.63637 10.3845 6.54061 10.4022 6.44486C10.7129 4.60367 9.78973 4.53838 9.78973 4.53838C9.78973 4.53838 9.63438 4.2511 9.23048 4.02912C8.95973 3.87242 8.58246 3.75054 8.08536 3.79407C7.92557 3.80278 7.77023 3.83324 7.6282 3.88112C7.44622 3.94206 7.27756 4.02912 7.12665 4.13358C6.94023 4.2511 6.76713 4.39039 6.61179 4.55144C6.36767 4.79519 6.15019 5.11293 6.05254 5.50903C5.97265 5.80501 5.9904 6.11405 6.05698 6.44486C6.07473 6.54061 6.10137 6.64073 6.13687 6.73648C5.95046 6.71907 5.73297 6.82354 5.94158 7.53738C6.08805 8.05535 6.23008 8.20334 6.33217 8.21204Z" fill="#0078B8"/>
<path d="M12.5549 9.54405C12.6614 10.2231 13.194 11.0849 14.0728 11.3896C14.4323 11.5158 14.8274 11.5158 15.1869 11.3852C16.0524 11.0805 16.6028 10.2187 16.7093 9.54405C16.8247 9.53535 16.98 9.3743 17.1442 8.8041C17.3706 8.02497 17.1309 7.90744 16.9268 7.92485C16.9667 7.81604 16.9933 7.71157 17.0155 7.60275C17.3573 5.58311 16.3453 5.50911 16.3453 5.50911C16.3453 5.50911 16.1767 5.19137 15.7328 4.95197C15.4354 4.77786 15.0227 4.64728 14.4767 4.69081C14.2992 4.69951 14.135 4.73434 13.9752 4.78222C13.7755 4.84751 13.589 4.94762 13.4248 5.06079C13.2207 5.18702 13.0298 5.34371 12.8567 5.51782C12.586 5.78769 12.3463 6.1359 12.2442 6.57117C12.1554 6.89762 12.1776 7.23278 12.2486 7.5984C12.2664 7.70287 12.2975 7.81168 12.3374 7.9205C12.1332 7.90309 11.8936 8.01626 12.1199 8.79974C12.2886 9.3743 12.4395 9.53535 12.5549 9.54405Z" fill="#0078B8"/>
<path d="M24.6448 10.6321C23.5174 10.3492 22.6031 9.71802 22.6031 9.71802L21.8885 11.9335L21.7554 12.3514V12.347L21.64 12.6996L21.2627 11.6506C22.1903 10.384 21.0763 10.397 21.0141 10.397C20.952 10.397 19.8379 10.384 20.7656 11.6506L20.3883 12.6996L20.2729 12.347V12.3514L20.1398 11.9335L19.4252 9.71802C19.4252 9.71802 18.5108 10.3492 17.3835 10.6321C17.2148 10.6756 17.0772 10.7453 16.9707 10.8367C17.308 11.0369 18.0004 11.4112 18.786 11.6071C19.7536 11.8465 20.2729 12.7518 20.1797 14.0272C20.1797 14.0489 20.1753 14.1055 20.1664 14.1882C20.4371 14.21 20.7212 14.223 21.0186 14.223C23.766 14.223 25.4038 13.1784 25.4038 13.1784C25.4526 12.8998 25.5014 12.26 25.5014 12.26C25.5236 11.7899 25.4837 10.841 24.6448 10.6321Z" fill="#0078B8"/>
<path d="M10.4908 11.6071C11.2719 11.4112 11.9643 11.0369 12.3061 10.8367C12.1951 10.7453 12.062 10.6713 11.8933 10.6321C10.766 10.3492 9.85163 9.71802 9.85163 9.71802L9.13704 11.9335L9.00389 12.3514V12.347L8.88849 12.6996L8.51122 11.6506C9.43886 10.384 8.3248 10.397 8.26267 10.397C8.20053 10.397 7.08647 10.384 8.01411 11.6506L7.63684 12.6996L7.52144 12.347V12.3514L7.38829 11.9335L6.6737 9.71802C6.6737 9.71802 5.75938 10.3492 4.63201 10.6321C3.79314 10.841 3.75319 11.7899 3.78426 12.2643C3.78426 12.2643 3.83308 12.9042 3.88191 13.1828C3.88191 13.1828 5.5197 14.2274 8.2671 14.2274C8.56448 14.2274 8.84854 14.2143 9.11929 14.1926C9.11041 14.1099 9.10597 14.0533 9.10597 14.0315C9.00389 12.7518 9.52763 11.8465 10.4908 11.6071Z" fill="#0078B8"/>
<path d="M18.6176 12.1991C17.3837 11.8901 16.3762 11.198 16.3762 11.198L15.595 13.6268L15.4485 14.0838L15.4441 14.0795L15.3154 14.4669L14.9026 13.3178C15.919 11.9292 14.6984 11.9423 14.6274 11.9423C14.5609 11.9423 13.3403 11.9249 14.3522 13.3178L13.9395 14.4669L13.8108 14.0795L13.8063 14.0838L13.6598 13.6268L12.8787 11.198C12.8787 11.198 11.8756 11.8901 10.6372 12.1991C9.71849 12.4298 9.66966 13.4701 9.70961 13.9881C9.70961 13.9881 9.76287 14.6888 9.81613 14.9979C9.81613 14.9979 10.5751 15.481 11.9333 15.8205L12.0975 15.6639C12.2573 15.5072 12.4703 15.4201 12.6967 15.4201C12.8742 15.4201 13.0473 15.4723 13.1938 15.5768L13.2027 15.5812L13.3891 15.7161C13.4024 15.7117 13.4157 15.703 13.4335 15.6987L13.4779 15.4593C13.5489 15.0588 13.904 14.7628 14.3212 14.7628L14.9337 14.7672C15.3509 14.7672 15.706 15.0632 15.7726 15.468L15.8081 15.6943C15.8303 15.703 15.8524 15.7117 15.8746 15.7204L16.0699 15.5855C16.2164 15.4854 16.3851 15.4332 16.5626 15.4332C16.7934 15.4332 17.0064 15.5202 17.1662 15.6813L17.3171 15.8293C18.6753 15.4897 19.4387 15.0066 19.4387 15.0066C19.492 14.6976 19.5452 13.9968 19.5452 13.9968C19.5852 13.4701 19.5408 12.4298 18.6176 12.1991Z" fill="#0078B8"/>
</g>
<defs>
<filter id="filter0_d_3906_16540" x="0.777344" y="0.785156" width="27.7285" height="18.0442" filterUnits="userSpaceOnUse" color-interpolation-filters="sRGB">
<feFlood flood-opacity="0" result="BackgroundImageFix"/>
<feColorMatrix in="SourceAlpha" type="matrix" values="0 0 0 0 0 0 0 0 0 0 0 0 0 0 0 0 0 0 127 0" result="hardAlpha"/>
<feOffset/>
<feGaussianBlur stdDeviation="1.5"/>
<feComposite in2="hardAlpha" operator="out"/>
<feColorMatrix type="matrix" values="0 0 0 0 0 0 0 0 0 0 0 0 0 0 0 0 0 0 0.25 0"/>
<feBlend mode="normal" in2="BackgroundImageFix" result="effect1_dropShadow_3906_16540"/>
<feBlend mode="normal" in="SourceGraphic" in2="effect1_dropShadow_3906_16540" result="shape"/>
</filter>
</defs>
</svg>
