<svg width="25" height="24" viewBox="0 0 25 24" fill="none" xmlns="http://www.w3.org/2000/svg">
<g id="Bell">
<path id="Vector" d="M6.13069 9.74997C6.12942 8.86086 6.30305 7.98021 6.64156 7.15889C6.98008 6.33752 7.47676 5.59169 8.10284 4.96428C8.7291 4.33687 9.47257 3.84029 10.2903 3.50314C11.1082 3.16605 11.9842 2.99503 12.868 2.99997C16.558 3.02812 19.5118 6.11249 19.5118 9.83434V10.5C19.5118 13.8562 20.2107 15.8062 20.8257 16.875C20.891 16.9888 20.9256 17.1179 20.9256 17.2493C20.9258 17.3808 20.8916 17.5099 20.8264 17.6238C20.7613 17.7378 20.6675 17.8325 20.5547 17.8985C20.4417 17.9645 20.3134 17.9995 20.1829 18H5.45984C5.32917 17.9995 5.20086 17.9645 5.08802 17.8985C4.97499 17.8325 4.88126 17.7378 4.81611 17.6238C4.75095 17.5099 4.71674 17.3808 4.71692 17.2493C4.7171 17.1179 4.7515 16.9888 4.81684 16.875C5.43181 15.8062 6.13069 13.8562 6.13069 10.5V9.74997Z" fill="black" fill-opacity="0.1"/>
<path id="Vector_2" fill-rule="evenodd" clip-rule="evenodd" d="M5.3852 10.5V9.74999C5.3852 9.74999 5.38311 8.25428 5.9529 6.87164C5.9529 6.87164 6.52269 5.48901 7.57686 4.43284C7.57686 4.43284 8.63102 3.37667 10.0077 2.80917C10.0077 2.80917 11.3843 2.24167 12.872 2.25C12.872 2.25 14.3847 2.26153 15.7622 2.86952C15.7622 2.86952 17.0875 3.45448 18.1078 4.50885C18.1078 4.50885 19.1241 5.5591 19.6814 6.91336C19.6814 6.91336 20.2573 8.31273 20.2573 9.83436V10.5C20.2573 10.5 20.2573 14.3903 21.4709 16.4992C21.4709 16.4992 21.6707 16.8475 21.6711 17.2487C21.6711 17.2487 21.6715 17.6499 21.4727 17.9977C21.4727 17.9977 21.2739 18.3455 20.929 18.547C20.929 18.547 20.5842 18.7486 20.1854 18.75L5.45975 18.75C5.45975 18.75 5.05833 18.7486 4.7135 18.547C4.7135 18.547 4.36866 18.3455 4.16987 17.9977C4.16987 17.9977 3.97108 17.6499 3.97144 17.2487C3.97144 17.2487 3.97179 16.8474 4.17119 16.5C4.17119 16.5 5.3852 14.3903 5.3852 10.5ZM6.87614 10.5C6.87614 10.5 6.87614 14.7932 5.46238 17.25L20.1802 17.25C20.1802 17.25 18.7664 14.7925 18.7664 10.5V9.83436C18.7664 9.83436 18.7664 7.33982 17.0395 5.55519C17.0395 5.55519 15.3107 3.76863 12.8637 3.74998C12.8637 3.74998 11.6739 3.74332 10.573 4.19717C10.573 4.19717 9.47198 4.65103 8.62892 5.4957C8.62892 5.4957 7.78585 6.34037 7.33016 7.44613C7.33016 7.44613 6.87447 8.5519 6.87614 9.74999V10.5Z" fill="#1C1C1C"/>
<path id="Vector_3" d="M16.5487 18.75V18C16.5487 17.5858 16.2149 17.25 15.8032 17.25C15.3915 17.25 15.0578 17.5858 15.0578 18V18.75C15.0578 19.682 14.4027 20.341 14.4027 20.341C13.7477 21 12.8213 21 12.8213 21C11.895 21 11.24 20.341 11.24 20.341C10.5849 19.682 10.5849 18.75 10.5849 18.75V18C10.5849 17.5858 10.2512 17.25 9.83946 17.25C9.42775 17.25 9.09399 17.5858 9.09399 18L9.09399 18.75C9.09399 20.3033 10.1857 21.4017 10.1857 21.4017C11.2774 22.5 12.8213 22.5 12.8213 22.5C14.3653 22.5 15.457 21.4017 15.457 21.4017C16.5487 20.3033 16.5487 18.75 16.5487 18.75Z" fill="#1C1C1C"/>
</g>
</svg>
