<svg width="34" height="34" viewBox="0 0 34 34" fill="none" xmlns="http://www.w3.org/2000/svg">
<path d="M20.5543 10.2922L20.5628 10.2926L20.5712 10.2927C21.074 10.2986 21.572 10.3907 22.0437 10.565C22.3596 10.6871 22.6466 10.8738 22.8862 11.1131C23.1257 11.3524 23.3126 11.6389 23.435 11.9545C23.6088 12.4266 23.7003 12.925 23.7055 13.4281L23.7056 13.4374L23.7061 13.4466C23.7498 14.3677 23.7586 14.6379 23.7586 17C23.7586 19.362 23.7498 19.6327 23.7078 20.5543L23.7074 20.5627L23.7073 20.5712C23.7014 21.074 23.6093 21.5721 23.4349 22.0438C23.3129 22.3596 23.1262 22.6466 22.8869 22.8862C22.6476 23.1257 22.361 23.3126 22.0454 23.435C21.5734 23.6088 21.0749 23.7003 20.5719 23.7055L20.5626 23.7056L20.5534 23.7061C19.6323 23.7498 19.3621 23.7586 17 23.7586C14.638 23.7586 14.3673 23.7498 13.4457 23.7078L13.4373 23.7074L13.4288 23.7073C12.926 23.7014 12.4279 23.6092 11.9562 23.4349C11.6404 23.3129 11.3534 23.1262 11.1138 22.8869C10.8743 22.6476 10.6874 22.3609 10.565 22.0453C10.3905 21.5732 10.2984 21.0746 10.2927 20.5714L10.2926 20.5628L10.2922 20.5543C10.2502 19.6323 10.2396 19.3612 10.2396 17C10.2396 14.6388 10.2502 14.3677 10.2922 13.4457L10.2926 13.4372L10.2927 13.4288C10.2986 12.926 10.3907 12.428 10.565 11.9563C10.6871 11.6404 10.8738 11.3534 11.1131 11.1138C11.3524 10.8743 11.6391 10.6873 11.9548 10.5649C12.4268 10.3905 12.9254 10.2984 13.4286 10.2927L13.4372 10.2926L13.4457 10.2922C14.3677 10.2502 14.6388 10.2396 17 10.2396C19.3612 10.2396 19.6323 10.2502 20.5543 10.2922ZM22.3243 10.8301L22.133 11.292L22.3243 10.8301C22.0388 10.7118 21.7246 10.6809 21.4215 10.7412C21.1184 10.8015 20.84 10.9503 20.6215 11.1688C20.403 11.3873 20.2542 11.6657 20.1939 11.9688C20.1336 12.2719 20.1645 12.5861 20.2828 12.8716C20.4011 13.1571 20.6013 13.4011 20.8583 13.5728C21.1152 13.7445 21.4173 13.8361 21.7264 13.8361C22.1408 13.8361 22.5382 13.6715 22.8312 13.3785C23.1242 13.0855 23.2889 12.688 23.2889 12.2736C23.2889 11.9646 23.1972 11.6625 23.0255 11.4056C22.8538 11.1486 22.6098 10.9483 22.3243 10.8301ZM7.8331 3.28075C10.5465 1.46771 13.7366 0.5 17 0.5C21.3761 0.5 25.5729 2.23839 28.6673 5.33274C31.7616 8.42709 33.5 12.6239 33.5 17C33.5 20.2634 32.5323 23.4535 30.7192 26.1669C28.9062 28.8803 26.3293 30.9952 23.3143 32.244C20.2993 33.4929 16.9817 33.8196 13.781 33.183C10.5803 32.5463 7.64031 30.9748 5.33274 28.6673C3.02518 26.3597 1.45371 23.4197 0.81705 20.219C0.180394 17.0183 0.507149 13.7007 1.756 10.6857C3.00484 7.67074 5.11969 5.09379 7.8331 3.28075ZM25.8566 22.9751C26.1334 22.237 26.2836 21.4576 26.3007 20.6696C26.3436 19.7162 26.3542 19.4038 26.3542 17C26.3542 14.5975 26.3436 14.2841 26.3008 13.332C26.2838 12.5435 26.1336 11.7634 25.8566 11.0249L25.8566 11.0249L25.8549 11.0204C25.6026 10.367 25.2165 9.77359 24.7214 9.27816C24.2263 8.78273 23.6331 8.39624 22.9799 8.14348L22.9799 8.14345L22.9747 8.1415C22.2361 7.86515 21.4562 7.71561 20.6678 7.69919C19.7159 7.65642 19.4023 7.64583 17 7.64583C14.5977 7.64583 14.2842 7.65642 13.3322 7.69919C12.5438 7.71561 11.7639 7.86515 11.0253 8.1415L11.0253 8.14147L11.0203 8.14339C10.3667 8.39592 9.7732 8.7823 9.27775 9.27775C8.78231 9.77319 8.39593 10.3667 8.1434 11.0203L8.14337 11.0203L8.1415 11.0253C7.86516 11.7639 7.71562 12.5438 7.69919 13.3322C7.65642 14.2841 7.64584 14.5977 7.64584 17C7.64584 19.4025 7.65643 19.7159 7.6992 20.668C7.71621 21.4565 7.8664 22.2365 8.14342 22.9751L8.14339 22.9751L8.14523 22.9798C8.39777 23.6328 8.78395 24.2259 9.27903 24.721C9.77411 25.216 10.3672 25.6022 11.0202 25.8548L11.0202 25.8548L11.0249 25.8566C11.7634 26.1336 12.5435 26.2838 13.332 26.3008C14.2841 26.3436 14.5975 26.3542 17 26.3542C19.4025 26.3542 19.7159 26.3436 20.668 26.3008C21.4565 26.2838 22.2366 26.1336 22.9751 25.8566L22.9751 25.8566L22.9798 25.8548C23.6328 25.6022 24.2259 25.216 24.721 24.721C25.2161 24.2259 25.6022 23.6328 25.8548 22.9798L25.8548 22.9798L25.8566 22.9751ZM14.1958 21.1968C15.0258 21.7515 16.0017 22.0475 17 22.0475C18.3387 22.0475 19.6225 21.5157 20.5691 20.5691C21.5157 19.6225 22.0475 18.3387 22.0475 17C22.0475 16.0017 21.7515 15.0258 21.1968 14.1958C20.6422 13.3657 19.8539 12.7187 18.9316 12.3367C18.0093 11.9547 16.9944 11.8547 16.0153 12.0495C15.0362 12.2442 14.1368 12.725 13.4309 13.4309C12.725 14.1368 12.2442 15.0362 12.0495 16.0153C11.8547 16.9944 11.9547 18.0093 12.3367 18.9316C12.7188 19.8539 13.3657 20.6422 14.1958 21.1968ZM19.452 17C19.452 17.485 19.3082 17.959 19.0387 18.3622C18.7693 18.7655 18.3864 19.0797 17.9383 19.2653C17.4903 19.4509 16.9973 19.4995 16.5216 19.4049C16.046 19.3103 15.6091 19.0767 15.2662 18.7338C14.9233 18.3909 14.6897 17.954 14.5951 17.4784C14.5005 17.0027 14.5491 16.5097 14.7347 16.0617C14.9203 15.6136 15.2345 15.2307 15.6378 14.9613C16.041 14.6918 16.515 14.548 17 14.548C17.6503 14.548 18.274 14.8063 18.7338 15.2662C19.1936 15.726 19.452 16.3497 19.452 17Z" fill="#BFD2F8" stroke="#034F86"/>
</svg>
