<svg width="34" height="34" viewBox="0 0 34 34" fill="none" xmlns="http://www.w3.org/2000/svg">
<path d="M12.8385 24.5461H13.3385V24.0461V12.9678V12.4678H12.8385H9.39604H8.89604V12.9678V24.0461V24.5461H9.39604H12.8385ZM13.4519 9.88479H13.452L13.4518 9.87387C13.4386 9.27276 13.2198 8.71457 12.8063 8.30516C12.3908 7.89382 11.8118 7.66531 11.1403 7.66531C10.4704 7.66531 9.88275 7.89263 9.45964 8.30051C9.03646 8.70846 8.80573 9.27084 8.80573 9.88479C8.80573 11.1136 9.73261 12.1078 11.096 12.1078C11.7878 12.1078 12.3821 11.8748 12.806 11.4616C13.2288 11.0493 13.4519 10.4864 13.4519 9.88479ZM25.4115 24.5461H25.9115V24.0461V17.4958C25.9115 15.7819 25.4648 14.4537 24.6511 13.5486C23.8322 12.6378 22.6962 12.2164 21.4483 12.2164C20.0493 12.2164 19.0233 12.7609 18.3444 13.3701L18.2978 12.9151L18.2518 12.466H17.8004H14.8095H14.2858L14.31 12.9891C14.3559 13.9808 14.3998 15.1286 14.3998 16.5006V24.0444V24.5444H14.8998H18.3441H18.8441V24.0444V17.657C18.8441 17.3418 18.8705 17.1114 18.9219 16.9858L18.9219 16.9858L18.9242 16.98C19.1297 16.4597 19.5525 16.0072 20.2247 16.0072C20.6949 16.0072 20.9678 16.1782 21.1475 16.4481C21.3493 16.7512 21.469 17.236 21.469 17.9067V24.0461V24.5461H21.969H25.4115ZM0.5 17C0.5 7.88718 7.88718 0.5 17 0.5C26.1128 0.5 33.5 7.88718 33.5 17C33.5 26.1128 26.1128 33.5 17 33.5C7.88718 33.5 0.5 26.1128 0.5 17Z" fill="#BFD2F8" stroke="#034F86"/>
</svg>
