<svg width="24" height="24" viewBox="0 0 24 24" fill="none" xmlns="http://www.w3.org/2000/svg">
<path d="M11.7254 17.1019C11.6264 16.8844 11.4214 16.7257 11.1733 16.6975C10.9632 16.6735 10.7575 16.6285 10.5619 16.5636C10.4742 16.5341 10.3919 16.5019 10.3157 16.4674L10.4423 16.1223C10.5317 16.1622 10.6238 16.1987 10.7181 16.2317L10.722 16.2331L10.726 16.2344C11.0286 16.3344 11.3264 16.3851 11.6109 16.3851C11.8966 16.3851 12.1037 16.3468 12.2628 16.2647L12.2723 16.2598L12.2816 16.2544C12.5226 16.1161 12.6609 15.8784 12.6609 15.6021C12.6609 15.2955 12.4955 15.041 12.207 14.9035C12.0619 14.8329 11.8558 14.7655 11.5589 14.6917C11.2544 14.6147 10.9986 14.533 10.8002 14.4493C10.6552 14.3837 10.5294 14.279 10.416 14.1293C10.3184 13.9957 10.269 13.7948 10.269 13.5319C10.269 13.2147 10.3583 12.9529 10.5421 12.7315C10.7057 12.5375 10.938 12.4057 11.2498 12.3318C11.4811 12.277 11.6615 12.1119 11.7426 11.8987C11.8343 12.1148 12.0294 12.2755 12.2722 12.3142C12.475 12.3465 12.6612 12.398 12.8286 12.4677L12.7121 12.8059C12.396 12.679 12.0849 12.6149 11.784 12.6149C10.7847 12.6149 10.7341 13.3043 10.7341 13.4425C10.7341 13.7421 10.8959 13.9933 11.178 14.1318L11.1859 14.1357L11.1939 14.1393C11.3364 14.2029 11.5386 14.2642 11.8304 14.3322C12.1321 14.4004 12.3837 14.4785 12.5814 14.5651L12.5855 14.5669L12.5896 14.5686C12.7364 14.6297 12.8623 14.7317 12.9745 14.8805L12.9763 14.8828L12.9781 14.8852C13.0762 15.012 13.126 15.2081 13.126 15.4681C13.126 15.7682 13.0391 16.0222 12.8603 16.2447C12.7052 16.4377 12.4887 16.5713 12.1982 16.6531C11.9739 16.7163 11.7999 16.8878 11.7254 17.1019Z" fill="#0078B8"/>
<path d="M11.9787 18H11.4972C11.3895 18 11.3022 17.9105 11.3022 17.8V17.3985C11.3022 17.2929 11.2221 17.2061 11.1197 17.1944C10.8759 17.1667 10.6401 17.115 10.4122 17.0394C10.1908 16.9648 9.99899 16.8764 9.83677 16.7739C9.76222 16.7268 9.7351 16.6312 9.76592 16.5472L10.0962 15.6466C10.1407 15.5254 10.2842 15.479 10.3947 15.5417C10.5439 15.6262 10.7043 15.6985 10.8757 15.7585C11.1312 15.8429 11.3764 15.8851 11.6112 15.8851C11.8131 15.8851 11.9574 15.8628 12.0439 15.8181C12.1304 15.7684 12.1737 15.6964 12.1737 15.6021C12.1737 15.4929 12.116 15.411 12.0006 15.3564C11.8894 15.3018 11.7039 15.2422 11.4444 15.1777C11.1106 15.0933 10.8325 15.0039 10.61 14.9096C10.3875 14.8103 10.1938 14.6514 10.029 14.433C9.86416 14.2096 9.78176 13.9092 9.78176 13.5319C9.78176 13.095 9.91156 12.7202 10.1711 12.4074C10.4051 12.13 10.7281 11.9424 11.1403 11.8447C11.2331 11.8227 11.3022 11.7401 11.3022 11.6425V11.2C11.3022 11.0895 11.3895 11 11.4972 11H11.9787C12.0864 11 12.1737 11.0895 12.1737 11.2V11.6172C12.1737 11.7194 12.2489 11.8045 12.3473 11.8202C12.7084 11.8777 13.0257 11.9866 13.2991 12.1469C13.3767 12.1924 13.4075 12.2892 13.3777 12.3756L13.0686 13.2725C13.0277 13.3914 12.8912 13.4417 12.7814 13.3849C12.4332 13.2049 12.1009 13.1149 11.7843 13.1149C11.4093 13.1149 11.2218 13.2241 11.2218 13.4425C11.2218 13.5468 11.2775 13.6262 11.3887 13.6809C11.5 13.7305 11.6833 13.7851 11.9388 13.8447C12.2684 13.9192 12.5466 14.006 12.7732 14.1053C12.9998 14.1996 13.1955 14.356 13.3604 14.5745C13.5293 14.7929 13.6138 15.0908 13.6138 15.4681C13.6138 15.8851 13.4881 16.25 13.2367 16.5628C13.0178 16.8354 12.7147 17.0262 12.3276 17.1353C12.2386 17.1604 12.1737 17.2412 12.1737 17.3358V17.8C12.1737 17.9105 12.0864 18 11.9787 18Z" fill="#0078B8"/>
<g filter="url(#filter0_d_3906_16511)">
<path fill-rule="evenodd" clip-rule="evenodd" d="M9.71735 5H13.9391C15.0204 5 14.4266 6.664 13.9888 7.679L13.4906 8.843L13.4233 9C13.8952 8.97651 14.3619 9.11054 14.7532 9.382C16.2171 10.7558 17.4052 12.4098 18.2506 14.251C18.58 14.9318 18.7107 15.6958 18.6269 16.451C18.5263 18.3759 17.0206 19.9098 15.1432 20H8.51323C6.63533 19.9125 5.1274 18.3802 5.02468 16.455C4.94087 15.6998 5.07156 14.9358 5.40103 14.255C6.24742 12.412 7.43716 10.7565 8.90323 9.382C9.2946 9.11054 9.76122 8.97651 10.2331 9L10.1551 8.819L9.66763 7.679C9.2318 6.664 8.6351 5 9.71735 5Z" stroke="#0078B8" stroke-width="1.7" stroke-linecap="round" stroke-linejoin="round" shape-rendering="crispEdges"/>
</g>
<path d="M13.2984 9.7499C13.7126 9.7499 14.0484 9.41411 14.0484 8.9999C14.0484 8.58569 13.7126 8.2499 13.2984 8.2499V9.7499ZM10.1082 8.2499C9.69405 8.2499 9.35826 8.58569 9.35826 8.9999C9.35826 9.41411 9.69405 9.7499 10.1082 9.7499V8.2499ZM15.9777 8.64978C16.3366 8.44302 16.46 7.98445 16.2532 7.62553C16.0464 7.26661 15.5879 7.14326 15.229 7.35002L15.9777 8.64978ZM13.3657 8.8429L13.5104 9.57881L13.5126 9.57838L13.3657 8.8429ZM10.0302 8.8189L10.1855 8.08511L10.1787 8.08373L10.0302 8.8189ZM8.16614 7.34347C7.8036 7.14312 7.34729 7.27459 7.14694 7.63712C6.94658 7.99966 7.07805 8.45597 7.44059 8.65633L8.16614 7.34347ZM13.2984 8.2499H10.1082V9.7499H13.2984V8.2499ZM15.229 7.35002C14.602 7.71118 13.9234 7.96673 13.2188 8.10742L13.5126 9.57838C14.3779 9.40558 15.2102 9.09193 15.9777 8.64978L15.229 7.35002ZM13.221 8.10699C12.2176 8.30431 11.1862 8.29685 10.1855 8.08511L9.875 9.55264C11.0733 9.8062 12.3087 9.81511 13.5104 9.57881L13.221 8.10699ZM10.1787 8.08373C9.47601 7.94186 8.79759 7.69245 8.16614 7.34347L7.44059 8.65633C8.2054 9.079 9.02832 9.38173 9.88183 9.55406L10.1787 8.08373Z" fill="#0078B8"/>
<defs>
<filter id="filter0_d_3906_16511" x="1.1499" y="1.1499" width="21.3516" height="22.7002" filterUnits="userSpaceOnUse" color-interpolation-filters="sRGB">
<feFlood flood-opacity="0" result="BackgroundImageFix"/>
<feColorMatrix in="SourceAlpha" type="matrix" values="0 0 0 0 0 0 0 0 0 0 0 0 0 0 0 0 0 0 127 0" result="hardAlpha"/>
<feOffset/>
<feGaussianBlur stdDeviation="1.5"/>
<feComposite in2="hardAlpha" operator="out"/>
<feColorMatrix type="matrix" values="0 0 0 0 0 0 0 0 0 0 0 0 0 0 0 0 0 0 0.25 0"/>
<feBlend mode="normal" in2="BackgroundImageFix" result="effect1_dropShadow_3906_16511"/>
<feBlend mode="normal" in="SourceGraphic" in2="effect1_dropShadow_3906_16511" result="shape"/>
</filter>
</defs>
</svg>
