<svg width="36" height="36" viewBox="0 0 36 36" fill="none" xmlns="http://www.w3.org/2000/svg">
<circle cx="18" cy="18" r="18" fill="#034F86" fill-opacity="0.1"/>
<path d="M21.7205 18.7413H11.2805C11.113 18.7252 10.957 18.64 10.8434 18.5026C10.7297 18.3652 10.6667 18.1856 10.6667 17.9992C10.6667 17.8128 10.7297 17.6332 10.8434 17.4958C10.957 17.3584 11.113 17.2732 11.2805 17.2571H21.7205L18.1708 13.3232C18.0975 13.2571 18.0375 13.1747 17.9948 13.0813C17.9522 12.9879 17.9278 12.8855 17.9232 12.7809C17.9186 12.6763 17.934 12.5718 17.9683 12.4742C18.0027 12.3767 18.0552 12.2882 18.1224 12.2147C18.1897 12.1411 18.2701 12.0841 18.3586 12.0474C18.4471 12.0106 18.5415 11.995 18.6358 12.0014C18.7301 12.0079 18.8221 12.0363 18.9058 12.0848C18.9896 12.1334 19.0631 12.2009 19.1217 12.2831L23.8096 17.4787C23.9317 17.6178 24 17.8042 24 17.9983C24 18.1923 23.9317 18.3787 23.8096 18.5178L19.1217 23.7143C19.0633 23.797 18.9898 23.865 18.906 23.914C18.8223 23.963 18.7301 23.9917 18.6356 23.9985C18.5411 24.0052 18.4464 23.9897 18.3577 23.953C18.269 23.9163 18.1882 23.8593 18.1208 23.7856C18.0534 23.7119 18.0007 23.6232 17.9664 23.5254C17.932 23.4276 17.9167 23.3228 17.9214 23.218C17.9262 23.1131 17.9508 23.0106 17.9938 22.917C18.0368 22.8235 18.0971 22.7411 18.1708 22.6752L21.7273 18.7413H21.7205Z" fill="#034F86"/>
</svg>
