<svg width="36" height="36" viewBox="0 0 36 36" fill="none" xmlns="http://www.w3.org/2000/svg">
<circle cx="18" cy="18" r="18" transform="matrix(-1 0 0 1 36 0)" fill="#034F86" fill-opacity="0.1"/>
<path d="M14.2795 18.7413H24.7195C24.887 18.7252 25.043 18.64 25.1566 18.5026C25.2703 18.3652 25.3333 18.1856 25.3333 17.9992C25.3333 17.8128 25.2703 17.6332 25.1566 17.4958C25.043 17.3584 24.887 17.2732 24.7195 17.2571H14.2795L17.8292 13.3232C17.9025 13.2571 17.9625 13.1747 18.0052 13.0813C18.0478 12.9879 18.0722 12.8855 18.0768 12.7809C18.0814 12.6763 18.066 12.5718 18.0317 12.4742C17.9973 12.3767 17.9448 12.2882 17.8776 12.2147C17.8103 12.1411 17.7299 12.0841 17.6414 12.0474C17.5529 12.0106 17.4585 11.995 17.3642 12.0014C17.2699 12.0079 17.1779 12.0363 17.0942 12.0848C17.0104 12.1334 16.9369 12.2009 16.8783 12.2831L12.1904 17.4787C12.0683 17.6178 12 17.8042 12 17.9983C12 18.1923 12.0683 18.3787 12.1904 18.5178L16.8783 23.7143C16.9367 23.797 17.0102 23.865 17.094 23.914C17.1777 23.963 17.2699 23.9917 17.3644 23.9985C17.4589 24.0052 17.5536 23.9897 17.6423 23.953C17.731 23.9163 17.8118 23.8593 17.8792 23.7856C17.9466 23.7119 17.9993 23.6232 18.0336 23.5254C18.068 23.4276 18.0833 23.3228 18.0786 23.218C18.0738 23.1131 18.0492 23.0106 18.0062 22.917C17.9632 22.8235 17.9029 22.7411 17.8292 22.6752L14.2727 18.7413H14.2795Z" fill="#034F86"/>
</svg>
