<svg width="42" height="42" viewBox="0 0 42 42" fill="none" xmlns="http://www.w3.org/2000/svg">
<circle opacity="0.1" cx="21" cy="21" r="21" fill="#5AB4E4"/>
<path d="M29.3332 14V19.4667C29.3332 19.8533 29.0198 20.1667 28.6332 20.1667H13.3665C12.9799 20.1667 12.6665 19.8533 12.6665 19.4667V14C12.6665 13.8674 12.7192 13.7402 12.813 13.6464C12.9067 13.5527 13.0339 13.5 13.1665 13.5H28.8332C28.9658 13.5 29.093 13.5527 29.1867 13.6464C29.2805 13.7402 29.3332 13.8674 29.3332 14Z" stroke="#0092DF" stroke-width="1.3" stroke-linecap="round" stroke-linejoin="round"/>
<path d="M25.9998 16.8333H26.8331" stroke="#0092DF" stroke-width="1.3" stroke-linecap="round" stroke-linejoin="round"/>
<path d="M18.9164 23.0833C18.9164 23.0833 18.9164 28.9166 15.9998 28.9166" stroke="#0092DF" stroke-width="1.3" stroke-linecap="round" stroke-linejoin="round"/>
<path d="M23.0833 23.0833C23.0833 23.0833 23.0833 28.9166 25.9999 28.9166" stroke="#0092DF" stroke-width="1.3" stroke-linecap="round" stroke-linejoin="round"/>
<path d="M20.9998 23.0833V28.9166" stroke="#0092DF" stroke-width="1.3" stroke-linecap="round" stroke-linejoin="round"/>
</svg>
