<svg width="40" height="32" viewBox="0 0 40 32" fill="none" xmlns="http://www.w3.org/2000/svg">
<rect x="0.5" y="0.5" width="39" height="31" rx="3.5" fill="#E9E9E9"/>
<rect x="0.5" y="0.5" width="39" height="31" rx="3.5" stroke="black"/>
<g clip-path="url(#clip0_4649_14024)">
<path d="M26.9599 11.8L19.8049 18.9549C19.0924 19.6674 16.9774 19.9974 16.5049 19.5249C16.0324 19.0524 16.3549 16.9374 17.0674 16.2249L24.2299 9.06245C24.4066 8.86975 24.6204 8.71484 24.8586 8.60707C25.0967 8.49929 25.3543 8.44087 25.6156 8.43536C25.8769 8.42987 26.1367 8.47737 26.3792 8.57503C26.6217 8.67269 26.8419 8.81849 27.0265 9.00359C27.211 9.18869 27.3562 9.40926 27.4532 9.65201C27.5502 9.89476 27.5971 10.1546 27.5908 10.416C27.5846 10.6773 27.5254 10.9347 27.4171 11.1726C27.3086 11.4104 27.1531 11.6239 26.9599 11.8Z" stroke="black" stroke-width="1.3" stroke-linecap="round" stroke-linejoin="round"/>
<path d="M19.25 10H15.5C14.7043 10 13.9413 10.3161 13.3787 10.8787C12.8161 11.4413 12.5 12.2043 12.5 13V20.5C12.5 21.2957 12.8161 22.0587 13.3787 22.6213C13.9413 23.1839 14.7043 23.5 15.5 23.5H23.75C25.4075 23.5 26 22.15 26 20.5V16.75" stroke="black" stroke-width="1.3" stroke-linecap="round" stroke-linejoin="round"/>
</g>
<defs>
<clipPath id="clip0_4649_14024">
<rect width="18" height="18" fill="white" transform="translate(11 7)"/>
</clipPath>
</defs>
</svg>
