<svg width="40" height="40" viewBox="0 0 40 40" fill="none" xmlns="http://www.w3.org/2000/svg">
<g filter="url(#filter0_d_4649_13348)">
<rect x="4" y="4" width="32" height="32" rx="8" fill="#3DB64A" fill-opacity="0.9" shape-rendering="crispEdges"/>
<path d="M20 13.7501C20.4142 13.7501 20.75 13.4143 20.75 13.0001C20.75 12.5858 20.4142 12.2501 20 12.2501V13.7501ZM14.5411 25.5012C14.8351 25.793 15.31 25.7912 15.6017 25.4972C15.8935 25.2031 15.8917 24.7283 15.5977 24.4365L14.5411 25.5012ZM18.376 15.584C18.1462 15.9287 18.2393 16.3943 18.584 16.6241C18.9286 16.8539 19.3943 16.7607 19.624 16.4161L18.376 15.584ZM21 13.0001L21.624 13.4161C21.8538 13.0714 21.7607 12.6058 21.416 12.376L21 13.0001ZM18.416 10.376C18.0714 10.1463 17.6057 10.2394 17.376 10.584C17.1462 10.9287 17.2393 11.3943 17.584 11.6241L18.416 10.376ZM20 26.2188C19.5858 26.2188 19.25 26.5546 19.25 26.9688C19.25 27.3831 19.5858 27.7188 20 27.7188V26.2188ZM25.4589 14.4677C25.1649 14.1759 24.69 14.1777 24.3983 14.4717C24.1065 14.7658 24.1083 15.2406 24.4023 15.5324L25.4589 14.4677ZM21.624 24.4161C21.8538 24.0714 21.7607 23.6058 21.416 23.376C21.0714 23.1463 20.6057 23.2394 20.376 23.584L21.624 24.4161ZM19 27.0001L18.376 26.584C18.1462 26.9287 18.2393 27.3943 18.584 27.6241L19 27.0001ZM21.584 29.6241C21.9286 29.8539 22.3943 29.7607 22.624 29.4161C22.8538 29.0714 22.7607 28.6058 22.416 28.376L21.584 29.6241ZM20 13.0001V12.2501C15.7198 12.2501 12.25 15.7199 12.25 20.0001H13H13.75C13.75 16.5483 16.5482 13.7501 20 13.7501V13.0001ZM13 20.0001H12.25C12.25 22.1507 13.127 24.098 14.5411 25.5012L15.0694 24.9689L15.5977 24.4365C14.4558 23.3033 13.75 21.7348 13.75 20.0001H13ZM19 16.0001L19.624 16.4161L21.624 13.4161L21 13.0001L20.376 12.584L18.376 15.584L19 16.0001ZM21 13.0001L21.416 12.376L18.416 10.376L18 11.0001L17.584 11.6241L20.584 13.6241L21 13.0001ZM20 26.9688V27.7188C24.2802 27.7188 27.75 24.249 27.75 19.9688H27H26.25C26.25 23.4206 23.4518 26.2188 20 26.2188V26.9688ZM27 19.9688H27.75C27.75 17.8182 26.873 15.8709 25.4589 14.4677L24.9306 15L24.4023 15.5324C25.5442 16.6656 26.25 18.2341 26.25 19.9688H27ZM21 24.0001L20.376 23.584L18.376 26.584L19 27.0001L19.624 27.4161L21.624 24.4161L21 24.0001ZM19 27.0001L18.584 27.6241L21.584 29.6241L22 29.0001L22.416 28.376L19.416 26.376L19 27.0001Z" fill="white"/>
</g>
<defs>
<filter id="filter0_d_4649_13348" x="0" y="0" width="40" height="40" filterUnits="userSpaceOnUse" color-interpolation-filters="sRGB">
<feFlood flood-opacity="0" result="BackgroundImageFix"/>
<feColorMatrix in="SourceAlpha" type="matrix" values="0 0 0 0 0 0 0 0 0 0 0 0 0 0 0 0 0 0 127 0" result="hardAlpha"/>
<feOffset/>
<feGaussianBlur stdDeviation="2"/>
<feComposite in2="hardAlpha" operator="out"/>
<feColorMatrix type="matrix" values="0 0 0 0 0.239216 0 0 0 0 0.713726 0 0 0 0 0.290196 0 0 0 0.2 0"/>
<feBlend mode="normal" in2="BackgroundImageFix" result="effect1_dropShadow_4649_13348"/>
<feBlend mode="normal" in="SourceGraphic" in2="effect1_dropShadow_4649_13348" result="shape"/>
</filter>
</defs>
</svg>
