<svg width="40" height="40" viewBox="0 0 40 40" fill="none" xmlns="http://www.w3.org/2000/svg">
<g filter="url(#filter0_d_4649_13377)">
<rect x="4" y="4" width="32" height="32" rx="8" fill="#025D8D"/>
<path d="M24.6 13.2C24.1 12.9 23.5 13.1 23.2 13.6C22.9 14.1 23.1 14.7 23.6 15C25.7 16.3 27.1 18.6 27.1 21C27.1 24.9 24 28 20.1 28C16.2 28 13.1 24.9 13.1 21C13.1 18.5 14.5 16.2 16.6 14.9C17 14.6 17.2 14 16.9 13.6C16.6 13.1 16 12.9 15.5 13.2C12.7 14.8 11 17.8 11 21C11 26 15 30 20 30C25 30 29 26 29 21C29 17.8 27.3 14.9 24.6 13.2Z" fill="white"/>
<path d="M20 22C20.6 22 21 21.6 21 21V12C21 11.4 20.6 11 20 11C19.4 11 19 11.4 19 12V21C19 21.6 19.4 22 20 22Z" fill="white"/>
</g>
<defs>
<filter id="filter0_d_4649_13377" x="0" y="0" width="40" height="40" filterUnits="userSpaceOnUse" color-interpolation-filters="sRGB">
<feFlood flood-opacity="0" result="BackgroundImageFix"/>
<feColorMatrix in="SourceAlpha" type="matrix" values="0 0 0 0 0 0 0 0 0 0 0 0 0 0 0 0 0 0 127 0" result="hardAlpha"/>
<feOffset/>
<feGaussianBlur stdDeviation="2"/>
<feComposite in2="hardAlpha" operator="out"/>
<feColorMatrix type="matrix" values="0 0 0 0 0.239216 0 0 0 0 0.713726 0 0 0 0 0.290196 0 0 0 0.2 0"/>
<feBlend mode="normal" in2="BackgroundImageFix" result="effect1_dropShadow_4649_13377"/>
<feBlend mode="normal" in="SourceGraphic" in2="effect1_dropShadow_4649_13377" result="shape"/>
</filter>
</defs>
</svg>
